<?xml version="1.0" standalone="no"?>
<!DOCTYPE svg PUBLIC "-//W3C//DTD SVG 1.1//EN"
 "http://www.w3.org/Graphics/SVG/1.1/DTD/svg11.dtd">
<!-- Created with svg_stack (http://github.com/astraw/svg_stack) -->
<svg xmlns:sodipodi="http://sodipodi.sourceforge.net/DTD/sodipodi-0.dtd" xmlns="http://www.w3.org/2000/svg" version="1.1" width="512.0" height="512.0">
  <defs/>
  <g id="id0:id0" transform="matrix(1.25,0,0,1.25,0.0,0.0)"><g transform="translate(0.000000,409.600000) scale(0.040000,-0.040000)" fill="#0face9" stroke="none">
<path d="M0 5120 l0 -5120 5120 0 5120 0 0 5120 0 5120 -5120 0 -5120 0 0 -5120z m5400 5000 c1115 -65 2138 -479 2990 -1208 110 -95 378 -361 489 -487 649 -735 1068 -1648 1200 -2615 37 -266 44 -383 44 -690 0 -307 -7 -424 -44 -690 -121 -885 -476 -1713 -1042 -2426 -222 -281 -517 -575 -811 -809 -703 -561 -1561 -925 -2451 -1040 -256 -33 -353 -38 -655 -38 -326 0 -490 11 -760 53 -693 107 -1343 353 -1935 731 -105 67 -288 195 -341 238 -17 14 -60 48 -95 76 -245 191 -583 532 -800 805 -881 1112 -1246 2555 -1003 3960 153 886 540 1703 1143 2410 151 178 482 496 660 635 35 28 78 62 95 76 98 80 391 275 551 366 847 483 1807 710 2765 653z"/>
</g>
</g>
  <g id="id1:id1" transform="matrix(1.25,0,0,1.25,0.0,0.0)"><g transform="translate(0.000000,409.600000) scale(0.040000,-0.040000)" fill="#000000" stroke="none">
<path d="M0 5120 l0 -5120 5120 0 5120 0 0 5120 0 5120 -5120 0 -5120 0 0 -5120z m5400 5000 c1115 -65 2138 -479 2990 -1208 110 -95 378 -361 489 -487 649 -735 1068 -1648 1200 -2615 37 -266 44 -383 44 -690 0 -307 -7 -424 -44 -690 -121 -885 -476 -1713 -1042 -2426 -222 -281 -517 -575 -811 -809 -703 -561 -1561 -925 -2451 -1040 -256 -33 -353 -38 -655 -38 -326 0 -490 11 -760 53 -693 107 -1343 353 -1935 731 -105 67 -288 195 -341 238 -17 14 -60 48 -95 76 -245 191 -583 532 -800 805 -881 1112 -1246 2555 -1003 3960 153 886 540 1703 1143 2410 151 178 482 496 660 635 35 28 78 62 95 76 98 80 391 275 551 366 847 483 1807 710 2765 653z"/>
</g>
</g>
  <g id="id2:id2" transform="matrix(1.25,0,0,1.25,0.0,0.0)"><g transform="translate(0.000000,409.600000) scale(0.040000,-0.040000)" fill="#ffffff" stroke="none">
<path d="M0 5120 l0 -5120 5120 0 5120 0 0 5120 0 5120 -5120 0 -5120 0 0 -5120z m5400 5000 c1115 -65 2138 -479 2990 -1208 110 -95 378 -361 489 -487 649 -735 1068 -1648 1200 -2615 37 -266 44 -383 44 -690 0 -307 -7 -424 -44 -690 -121 -885 -476 -1713 -1042 -2426 -222 -281 -517 -575 -811 -809 -703 -561 -1561 -925 -2451 -1040 -256 -33 -353 -38 -655 -38 -326 0 -490 11 -760 53 -693 107 -1343 353 -1935 731 -105 67 -288 195 -341 238 -17 14 -60 48 -95 76 -245 191 -583 532 -800 805 -881 1112 -1246 2555 -1003 3960 153 886 540 1703 1143 2410 151 178 482 496 660 635 35 28 78 62 95 76 98 80 391 275 551 366 847 483 1807 710 2765 653z"/>
<path d="M2710 5120 l0 -2620 1104 0 c685 0 1154 4 1237 11 291 23 502 64 744 144 583 194 1058 568 1359 1068 195 324 292 613 357 1062 17 116 17 570 1 680 -44 281 -73 410 -137 595 -47 138 -187 420 -270 543 -91 136 -162 223 -290 356 -393 405 -945 672 -1555 750 -222 28 -349 31 -1427 31 l-1123 0 0 -2620z m2345 1282 c491 -105 818 -399 950 -857 37 -129 55 -265 55 -420 0 -389 -122 -708 -365 -951 -174 -176 -370 -277 -645 -335 -94 -19 -143 -22 -477 -26 -205 -3 -384 -2 -398 1 l-25 6 0 1299 c0 714 3 1301 8 1305 4 4 185 6 402 3 355 -4 405 -6 495 -25z"/>
</g>
</g>
  <g id="id3:id3" transform="matrix(1.25,0,0,1.25,0.0,0.0)"><g transform="translate(0.000000,409.600000) scale(0.040000,-0.040000)" fill="#9ed2e6" stroke="none">
<path d="M0 5120 l0 -5120 5120 0 5120 0 0 5120 0 5120 -5120 0 -5120 0 0 -5120z m5400 5000 c1115 -65 2138 -479 2990 -1208 110 -95 378 -361 489 -487 649 -735 1068 -1648 1200 -2615 37 -266 44 -383 44 -690 0 -307 -7 -424 -44 -690 -121 -885 -476 -1713 -1042 -2426 -222 -281 -517 -575 -811 -809 -703 -561 -1561 -925 -2451 -1040 -256 -33 -353 -38 -655 -38 -326 0 -490 11 -760 53 -693 107 -1343 353 -1935 731 -105 67 -288 195 -341 238 -17 14 -60 48 -95 76 -245 191 -583 532 -800 805 -881 1112 -1246 2555 -1003 3960 153 886 540 1703 1143 2410 151 178 482 496 660 635 35 28 78 62 95 76 98 80 391 275 551 366 847 483 1807 710 2765 653z"/>
<path d="M2705 7738 c-3 -7 -4 -1190 -3 -2628 l3 -2615 1078 0 1077 0 -1075 2 -1075 3 0 2620 0 2620 1078 3 1077 2 -1078 3 c-855 1 -1079 -1 -1082 -10z"/>
<path d="M5055 7730 c33 -4 80 -8 105 -8 l45 1 -45 8 c-25 4 -72 7 -105 7 l-60 -1 60 -7z"/>
<path d="M5255 7710 c17 -4 44 -8 60 -8 29 0 29 0 5 8 -14 4 -41 8 -60 8 l-35 0 30 -8z"/>
<path d="M5390 7690 c14 -4 36 -8 50 -8 l25 0 -25 8 c-14 4 -36 8 -50 8 l-25 0 25 -8z"/>
<path d="M5490 7670 c14 -4 34 -8 45 -8 l20 -1 -20 9 c-11 5 -31 8 -45 8 l-25 0 25 -8z"/>
<path d="M5575 7650 c11 -5 29 -9 40 -9 17 -1 17 1 5 9 -8 5 -26 9 -40 9 -23 0 -23 -1 -5 -9z"/>
<path d="M5655 7630 c11 -5 27 -9 35 -9 13 -1 13 0 0 9 -8 5 -24 9 -35 9 l-20 0 20 -9z"/>
<path d="M5725 7610 c11 -5 27 -9 35 -9 13 -1 13 0 0 9 -8 5 -24 9 -35 9 l-20 0 20 -9z"/>
<path d="M5790 7590 c8 -5 22 -10 30 -10 13 0 13 1 0 10 -8 5 -22 10 -30 10 -13 0 -13 -1 0 -10z"/>
<path d="M5855 7570 c151 -65 260 -108 263 -105 7 7 -251 116 -272 114 -6 0 -2 -4 9 -9z"/>
<path d="M6135 7450 c3 -5 11 -10 16 -10 6 0 7 5 4 10 -3 6 -11 10 -16 10 -6 0 -7 -4 -4 -10z"/>
<path d="M6175 7430 c3 -5 11 -10 16 -10 6 0 7 5 4 10 -3 6 -11 10 -16 10 -6 0 -7 -4 -4 -10z"/>
<path d="M6216 7412 c14 -14 124 -73 124 -68 0 6 -118 76 -128 76 -3 0 -2 -4 4 -8z"/>
<path d="M6356 7331 c22 -21 166 -112 160 -102 -8 13 -151 111 -163 111 -4 0 -3 -4 3 -9z"/>
<path d="M6530 7217 c0 -2 39 -36 88 -75 98 -78 278 -260 364 -368 100 -126 181 -255 270 -433 49 -96 88 -169 88 -162 0 6 -4 19 -9 29 -6 9 -29 58 -53 107 -165 350 -417 657 -735 898 -7 5 -13 7 -13 4z"/>
<path d="M4155 6418 c-3 -7 -4 -596 -3 -1308 l3 -1295 3 1302 2 1303 353 3 352 2 -353 3 c-275 1 -354 -1 -357 -10z"/>
<path d="M4930 6409 c25 -4 59 -7 75 -7 l30 0 -30 8 c-16 4 -50 8 -75 8 l-45 -1 45 -8z"/>
<path d="M5060 6390 c14 -4 36 -8 50 -8 l25 0 -25 8 c-14 4 -36 8 -50 8 l-25 0 25 -8z"/>
<path d="M5150 6370 c8 -5 24 -9 35 -9 l20 0 -20 9 c-11 5 -27 9 -35 9 -13 1 -13 0 0 -9z"/>
<path d="M5220 6350 c8 -5 22 -10 30 -10 13 0 13 1 0 10 -8 5 -22 10 -30 10 -13 0 -13 -1 0 -10z"/>
<path d="M5280 6330 c8 -5 20 -10 25 -10 6 0 3 5 -5 10 -8 5 -19 10 -25 10 -5 0 -3 -5 5 -10z"/>
<path d="M5330 6310 c8 -5 20 -10 25 -10 6 0 3 5 -5 10 -8 5 -19 10 -25 10 -5 0 -3 -5 5 -10z"/>
<path d="M5377 6289 c7 -7 15 -10 18 -7 3 3 -2 9 -12 12 -14 6 -15 5 -6 -5z"/>
<path d="M5410 6277 c0 -3 30 -22 66 -43 172 -101 328 -265 419 -442 21 -40 40 -71 42 -68 6 6 -32 80 -82 156 -82 128 -191 239 -330 336 -35 24 -115 66 -115 61z"/>
<path d="M7340 6153 c0 -4 5 -15 10 -23 8 -13 10 -13 10 2 0 9 -4 20 -10 23 -5 3 -10 3 -10 -2z"/>
<path d="M7365 6092 c14 -49 54 -157 54 -146 1 14 -38 135 -50 154 -7 11 -8 9 -4 -8z"/>
<path d="M7421 5920 c0 -8 4 -24 9 -35 l9 -20 0 20 c0 11 -4 27 -9 35 -9 13 -10 13 -9 0z"/>
<path d="M7441 5845 c0 -11 4 -29 9 -40 l9 -20 0 20 c0 11 -4 29 -9 40 l-9 20 0 -20z"/>
<path d="M7462 5765 c0 -11 4 -31 8 -45 l8 -25 0 25 c0 14 -3 34 -8 45 l-9 20 1 -20z"/>
<path d="M5941 5705 c0 -5 9 -28 20 -50 10 -22 16 -29 13 -15 -7 28 -33 80 -33 65z"/>
<path d="M7482 5665 c0 -16 4 -43 8 -60 l8 -30 0 35 c0 19 -4 46 -8 60 -8 24 -8 24 -8 -5z"/>
<path d="M5981 5605 c0 -5 8 -37 19 -70 11 -33 17 -44 13 -25 -6 38 -31 111 -32 95z"/>
<path d="M7502 5545 c0 -16 3 -50 7 -75 l8 -45 1 45 c0 25 -4 59 -8 75 l-8 30 0 -30z"/>
<path d="M6022 5450 c0 -14 4 -38 8 -55 l8 -30 0 30 c0 17 -4 41 -8 55 l-8 25 0 -25z"/>
<path d="M7525 5125 c0 -159 3 -263 6 -230 4 33 7 137 7 230 0 94 -3 197 -7 230 -3 33 -6 -70 -6 -230z"/>
<path d="M6045 5125 c0 -132 3 -220 7 -195 3 25 7 113 7 195 0 83 -4 170 -7 195 -4 25 -7 -63 -7 -195z"/>
<path d="M6025 4835 c-4 -25 -5 -48 -2 -51 3 -3 9 15 12 41 4 25 5 48 2 51 -3 3 -9 -15 -12 -41z"/>
<path d="M7506 4757 c-4 -38 -5 -71 -3 -74 7 -7 20 100 15 123 -2 11 -8 -12 -12 -49z"/>
<path d="M5996 4709 c-9 -34 -15 -63 -13 -66 2 -2 12 24 21 58 10 33 16 63 13 65 -2 2 -11 -24 -21 -57z"/>
<path d="M7485 4622 c-4 -29 -5 -56 -2 -59 7 -7 20 82 15 99 -3 7 -8 -11 -13 -40z"/>
<path d="M5957 4588 c-9 -23 -15 -43 -13 -45 2 -2 11 15 20 38 9 23 15 43 13 45 -2 2 -11 -15 -20 -38z"/>
<path d="M7466 4514 c-4 -20 -5 -38 -2 -41 2 -3 8 11 12 31 3 21 4 39 1 42 -2 3 -8 -11 -11 -32z"/>
<path d="M5895 4458 c-83 -162 -224 -320 -373 -417 -80 -53 -105 -74 -59 -50 108 57 277 212 359 329 54 76 122 199 116 206 -3 2 -22 -28 -43 -68z"/>
<path d="M7445 4430 c-4 -17 -5 -34 -2 -36 3 -3 8 9 12 26 4 17 5 34 2 36 -3 3 -8 -9 -12 -26z"/>
<path d="M7426 4354 c-4 -14 -5 -29 -2 -31 3 -3 8 7 12 21 3 15 4 29 1 32 -2 3 -8 -7 -11 -22z"/>
<path d="M7411 4303 c-1 -6 -4 -20 -7 -30 -5 -17 -5 -17 6 0 6 10 9 23 6 30 -3 9 -5 9 -5 0z"/>
<path d="M7377 4199 c-9 -29 -15 -54 -13 -56 6 -6 38 87 34 98 -2 6 -11 -13 -21 -42z"/>
<path d="M7346 4115 c-9 -26 -7 -32 5 -12 6 10 9 21 6 23 -2 3 -7 -2 -11 -11z"/>
<path d="M7326 4064 c-4 -9 -4 -19 -1 -22 2 -3 7 3 11 12 4 9 4 19 1 22 -2 3 -7 -3 -11 -12z"/>
<path d="M7296 3994 c-9 -20 -15 -39 -12 -41 3 -3 12 12 21 32 20 49 14 56 -9 9z"/>
<path d="M5387 3963 c-16 -8 -26 -17 -24 -20 6 -5 67 24 67 32 0 8 -13 4 -43 -12z"/>
<path d="M5285 3918 c-83 -33 -94 -39 -60 -33 31 7 137 53 120 53 -5 0 -32 -9 -60 -20z"/>
<path d="M7267 3933 c-4 -3 -7 -11 -7 -17 0 -6 5 -5 12 2 6 6 9 14 7 17 -3 3 -9 2 -12 -2z"/>
<path d="M7202 3808 c-28 -51 -80 -137 -116 -191 -36 -54 -61 -95 -55 -92 12 8 117 164 156 235 67 119 74 133 70 137 -3 2 -27 -38 -55 -89z"/>
<path d="M5145 3870 l-20 -9 20 0 c11 0 27 4 35 9 13 9 13 10 0 9 -8 0 -24 -4 -35 -9z"/>
<path d="M5055 3850 l-20 -9 20 1 c11 0 31 4 45 8 l25 8 -25 0 c-14 0 -34 -3 -45 -8z"/>
<path d="M4915 3830 l-40 -7 45 0 c25 -1 59 3 75 7 l30 8 -35 -1 c-19 0 -53 -3 -75 -7z"/>
<path d="M4332 3813 c92 -2 245 -2 340 0 95 1 20 3 -167 3 -187 0 -265 -2 -173 -3z"/>
<path d="M6956 3442 c-70 -88 -246 -265 -336 -338 -71 -57 -94 -83 -41 -45 59 42 228 200 301 282 83 92 145 169 136 169 -3 0 -30 -31 -60 -68z"/>
<path d="M6423 2962 c-61 -42 -110 -78 -108 -80 4 -5 212 135 220 148 9 15 10 15 -112 -68z"/>
<path d="M6185 2820 c-129 -70 -133 -80 -7 -15 78 39 136 75 122 74 -3 0 -54 -27 -115 -59z"/>
<path d="M6020 2740 c-19 -11 -32 -19 -29 -20 11 0 79 30 79 35 0 9 -14 5 -50 -15z"/>
<path d="M5950 2710 c-13 -8 -13 -10 2 -10 9 0 20 5 23 10 8 13 -5 13 -25 0z"/>
<path d="M5870 2680 c-25 -10 -38 -19 -30 -19 17 1 101 37 85 38 -5 0 -30 -9 -55 -19z"/>
<path d="M5785 2650 c-13 -6 -15 -9 -5 -9 8 0 22 4 30 9 18 12 2 12 -25 0z"/>
<path d="M5690 2620 c-30 -10 -51 -18 -47 -19 13 -1 117 30 117 35 0 6 -11 4 -70 -16z"/>
<path d="M5575 2590 l-20 -9 20 0 c11 0 29 4 40 9 l20 9 -20 0 c-11 0 -29 -4 -40 -9z"/>
<path d="M5480 2570 l-25 -8 25 0 c14 0 34 3 45 8 l20 9 -20 -1 c-11 0 -31 -4 -45 -8z"/>
<path d="M5385 2550 l-30 -8 30 0 c17 0 39 3 50 8 l20 9 -20 -1 c-11 0 -33 -4 -50 -8z"/>
<path d="M5250 2530 l-35 -7 35 -1 c19 0 49 4 65 8 l30 8 -30 0 c-16 -1 -46 -4 -65 -8z"/>
<path d="M5035 2510 l-70 -6 75 -2 c41 0 93 3 115 7 l40 9 -45 -1 c-25 0 -76 -3 -115 -7z"/>
</g>
</g>
  <g id="id4:id4" transform="matrix(1.25,0,0,1.25,0.0,0.0)"><g transform="translate(0.000000,409.600000) scale(0.040000,-0.040000)" fill="#16ade6" stroke="none">
<path d="M0 5120 l0 -5120 5120 0 5120 0 0 5120 0 5120 -5120 0 -5120 0 0 -5120z m5400 5000 c1115 -65 2138 -479 2990 -1208 110 -95 378 -361 489 -487 649 -735 1068 -1648 1200 -2615 37 -266 44 -383 44 -690 0 -307 -7 -424 -44 -690 -121 -885 -476 -1713 -1042 -2426 -222 -281 -517 -575 -811 -809 -703 -561 -1561 -925 -2451 -1040 -256 -33 -353 -38 -655 -38 -326 0 -490 11 -760 53 -693 107 -1343 353 -1935 731 -105 67 -288 195 -341 238 -17 14 -60 48 -95 76 -245 191 -583 532 -800 805 -881 1112 -1246 2555 -1003 3960 153 886 540 1703 1143 2410 151 178 482 496 660 635 35 28 78 62 95 76 98 80 391 275 551 366 847 483 1807 710 2765 653z"/>
</g>
</g>
  <g id="id5:id5" transform="matrix(1.25,0,0,1.25,0.0,0.0)"><g transform="translate(0.000000,409.600000) scale(0.040000,-0.040000)" fill="#22c0f2" stroke="none">
<path d="M0 5120 l0 -5120 5120 0 5120 0 0 5120 0 5120 -5120 0 -5120 0 0 -5120z m5400 5000 c1115 -65 2138 -479 2990 -1208 110 -95 378 -361 489 -487 649 -735 1068 -1648 1200 -2615 37 -266 44 -383 44 -690 0 -307 -7 -424 -44 -690 -121 -885 -476 -1713 -1042 -2426 -222 -281 -517 -575 -811 -809 -703 -561 -1561 -925 -2451 -1040 -256 -33 -353 -38 -655 -38 -326 0 -490 11 -760 53 -775 120 -1497 413 -2140 869 -120 85 -151 111 -145 121 2 4 -8 18 -23 31 l-27 24 24 -28 c65 -74 -42 6 -235 175 -112 97 -387 374 -485 488 -980 1136 -1399 2650 -1143 4130 153 886 540 1703 1143 2410 91 107 368 386 486 490 182 159 287 238 244 183 -13 -16 -12 -17 3 -4 10 7 16 17 13 21 -6 10 24 35 145 121 934 662 2054 986 3180 919z"/>
<path d="M2009 9023 c-13 -16 -12 -17 4 -4 9 7 17 15 17 17 0 8 -8 3 -21 -13z"/>
<path d="M1959 8983 c-13 -16 -12 -17 4 -4 9 7 17 15 17 17 0 8 -8 3 -21 -13z"/>
<path d="M1899 8933 l-24 -28 28 24 c25 23 32 31 24 31 -2 0 -14 -12 -28 -27z"/>
<path d="M1725 8777 c-323 -304 -553 -577 -779 -922 -439 -669 -703 -1413 -793 -2235 -25 -233 -25 -767 0 -1000 130 -1193 637 -2243 1478 -3066 130 -127 244 -231 197 -178 l-28 30 0 3714 0 3714 32 33 c68 70 18 28 -107 -90z"/>
<path d="M2697 7753 c-10 -9 -9 -5263 1 -5263 4 0 7 1182 7 2627 l0 2628 315 5 315 5 -316 3 c-174 1 -319 -1 -322 -5z"/>
<path d="M4938 7743 c29 -2 74 -2 100 0 26 2 2 3 -53 3 -55 0 -76 -1 -47 -3z"/>
<path d="M5143 7733 c9 -2 23 -2 30 0 6 3 -1 5 -18 5 -16 0 -22 -2 -12 -5z"/>
<path d="M5218 7723 c12 -2 30 -2 40 0 9 3 -1 5 -23 4 -22 0 -30 -2 -17 -4z"/>
<path d="M5308 7713 c7 -3 16 -2 19 1 4 3 -2 6 -13 5 -11 0 -14 -3 -6 -6z"/>
<path d="M5353 7703 c9 -2 25 -2 35 0 9 3 1 5 -18 5 -19 0 -27 -2 -17 -5z"/>
<path d="M5468 7683 c6 -2 18 -2 25 0 6 3 1 5 -13 5 -14 0 -19 -2 -12 -5z"/>
<path d="M5558 7663 c6 -2 18 -2 25 0 6 3 1 5 -13 5 -14 0 -19 -2 -12 -5z"/>
<path d="M5638 7643 c7 -3 16 -2 19 1 4 3 -2 6 -13 5 -11 0 -14 -3 -6 -6z"/>
<path d="M5708 7623 c7 -3 16 -2 19 1 4 3 -2 6 -13 5 -11 0 -14 -3 -6 -6z"/>
<path d="M5778 7603 c7 -3 16 -2 19 1 4 3 -2 6 -13 5 -11 0 -14 -3 -6 -6z"/>
<path d="M6077 7489 c7 -7 15 -10 18 -7 3 3 -2 9 -12 12 -14 6 -15 5 -6 -5z"/>
<path d="M6117 7469 c7 -7 15 -10 18 -7 3 3 -2 9 -12 12 -14 6 -15 5 -6 -5z"/>
<path d="M6157 7449 c7 -7 15 -10 18 -7 3 3 -2 9 -12 12 -14 6 -15 5 -6 -5z"/>
<path d="M6197 7429 c7 -7 15 -10 18 -7 3 3 -2 9 -12 12 -14 6 -15 5 -6 -5z"/>
<path d="M6337 7349 c7 -7 15 -10 18 -7 3 3 -2 9 -12 12 -14 6 -15 5 -6 -5z"/>
<path d="M6500 7246 c0 -2 8 -10 18 -17 15 -13 16 -12 3 4 -13 16 -21 21 -21 13z"/>
<path d="M6585 7180 c10 -11 20 -20 23 -20 3 0 -3 9 -13 20 -10 11 -20 20 -23 20 -3 0 3 -9 13 -20z"/>
<path d="M6630 7146 c0 -2 8 -10 18 -17 15 -13 16 -12 3 4 -13 16 -21 21 -21 13z"/>
<path d="M6670 7117 c0 -2 15 -16 33 -33 l32 -29 -29 33 c-28 30 -36 37 -36 29z"/>
<path d="M6895 6890 c10 -11 20 -20 23 -20 3 0 -3 9 -13 20 -10 11 -20 20 -23 20 -3 0 3 -9 13 -20z"/>
<path d="M7532 4920 c0 -14 2 -19 5 -12 2 6 2 18 0 25 -3 6 -5 1 -5 -13z"/>
<path d="M5719 4213 c-13 -16 -12 -17 4 -4 9 7 17 15 17 17 0 8 -8 3 -21 -13z"/>
<path d="M6894 3358 l-19 -23 23 19 c21 18 27 26 19 26 -2 0 -12 -10 -23 -22z"/>
<path d="M6694 3158 l-19 -23 23 19 c12 11 22 21 22 23 0 8 -8 2 -26 -19z"/>
<path d="M5298 2523 c7 -3 16 -2 19 1 4 3 -2 6 -13 5 -11 0 -14 -3 -6 -6z"/>
<path d="M5198 2513 c7 -3 16 -2 19 1 4 3 -2 6 -13 5 -11 0 -14 -3 -6 -6z"/>
<path d="M5138 2503 c7 -3 16 -2 19 1 4 3 -2 6 -13 5 -11 0 -14 -3 -6 -6z"/>
<path d="M4913 2493 c15 -2 39 -2 55 0 15 2 2 4 -28 4 -30 0 -43 -2 -27 -4z"/>
<path d="M1895 1310 c10 -11 20 -20 23 -20 3 0 -3 9 -13 20 -10 11 -20 20 -23 20 -3 0 3 -9 13 -20z"/>
<path d="M1950 1266 c0 -2 8 -10 18 -17 15 -13 16 -12 3 4 -13 16 -21 21 -21 13z"/>
</g>
</g>
  <g id="id6:id6" transform="matrix(1.25,0,0,1.25,0.0,0.0)"><g transform="translate(0.000000,409.600000) scale(0.040000,-0.040000)" fill="#17baf1" stroke="none">
<path d="M0 5120 l0 -5120 5120 0 5120 0 0 5120 0 5120 -5120 0 -5120 0 0 -5120z m5400 5000 c1115 -65 2138 -479 2990 -1208 110 -95 378 -361 489 -487 649 -735 1068 -1648 1200 -2615 37 -266 44 -383 44 -690 0 -307 -7 -424 -44 -690 -121 -885 -476 -1713 -1042 -2426 -222 -281 -517 -575 -811 -809 -703 -561 -1561 -925 -2451 -1040 -256 -33 -353 -38 -655 -38 -326 0 -490 11 -760 53 -693 107 -1343 353 -1935 731 -105 67 -288 195 -341 238 -17 14 -60 48 -95 76 -245 191 -583 532 -800 805 -881 1112 -1246 2555 -1003 3960 153 886 540 1703 1143 2410 151 178 482 496 660 635 35 28 78 62 95 76 98 80 391 275 551 366 847 483 1807 710 2765 653z"/>
<path d="M3555 9860 c-16 -7 -17 -9 -3 -9 9 -1 20 4 23 9 7 11 7 11 -20 0z"/>
<path d="M3290 9764 c-514 -202 -1019 -509 -1417 -862 l-73 -64 0 -3718 0 -3718 72 -65 c200 -177 524 -408 780 -556 233 -134 775 -378 795 -357 3 3 -1 6 -10 6 -20 0 -23 16 -4 23 10 4 10 6 0 6 -10 1 -13 134 -13 629 l0 628 -50 49 c-66 65 -64 79 3 16 28 -27 104 -98 167 -157 106 -100 103 -96 -41 51 -86 88 -297 303 -470 479 -173 175 -320 325 -327 332 -7 8 -18 14 -23 14 -5 0 -9 1014 -9 2618 l0 2619 23 12 c17 9 149 14 478 20 384 7 420 8 234 11 -211 4 -215 4 -90 10 72 3 124 7 118 8 -19 3 -19 1978 0 1985 10 4 10 6 0 6 -18 1 -16 21 1 21 8 0 18 5 21 10 8 13 22 18 -165 -56z"/>
<path d="M3348 7753 c12 -2 32 -2 45 0 12 2 2 4 -23 4 -25 0 -35 -2 -22 -4z"/>
<path d="M3778 7753 c193 -2 511 -2 705 0 193 1 35 2 -353 2 -388 0 -546 -1 -352 -2z"/>
<path d="M5093 7743 c9 -2 23 -2 30 0 6 3 -1 5 -18 5 -16 0 -22 -2 -12 -5z"/>
<path d="M5278 7723 c7 -3 16 -2 19 1 4 3 -2 6 -13 5 -11 0 -14 -3 -6 -6z"/>
<path d="M3540 386 c0 -2 9 -6 20 -9 11 -3 18 -1 14 4 -5 9 -34 13 -34 5z"/>
</g>
</g>
  <g id="id7:id7" transform="matrix(1.25,0,0,1.25,0.0,0.0)"><g transform="translate(0.000000,409.600000) scale(0.040000,-0.040000)" fill="#07b1ef" stroke="none">
<path d="M0 5120 l0 -5120 5120 0 5120 0 0 5120 0 5120 -5120 0 -5120 0 0 -5120z m5400 5000 c1115 -65 2138 -479 2990 -1208 110 -95 378 -361 489 -487 649 -735 1068 -1648 1200 -2615 37 -266 44 -383 44 -690 0 -307 -7 -424 -44 -690 -121 -885 -476 -1713 -1042 -2426 -222 -281 -517 -575 -811 -809 -703 -561 -1561 -925 -2451 -1040 -256 -33 -353 -38 -655 -38 -326 0 -490 11 -760 53 -693 107 -1343 353 -1935 731 -105 67 -288 195 -341 238 -17 14 -60 48 -95 76 -245 191 -583 532 -800 805 -881 1112 -1246 2555 -1003 3960 153 886 540 1703 1143 2410 151 178 482 496 660 635 35 28 78 62 95 76 98 80 391 275 551 366 847 483 1807 710 2765 653z"/>
<path d="M4820 10099 c-408 -31 -685 -75 -955 -151 -38 -11 -88 -24 -110 -30 -46 -12 -150 -45 -180 -57 -11 -5 -38 -14 -60 -21 -87 -26 -111 -42 -82 -53 10 -4 10 -6 0 -6 -10 -1 -13 -206 -13 -991 0 -784 3 -990 13 -992 6 -1 -46 -5 -118 -8 -127 -6 -125 -6 90 -10 l220 -5 -330 -6 c-181 -3 148 -5 732 -4 774 2 1063 -1 1066 -9 2 -7 37 -10 105 -8 77 2 102 0 100 -10 -2 -9 17 -12 72 -10 41 1 69 -1 63 -4 -29 -13 -9 -19 49 -16 51 3 60 2 51 -10 -9 -11 -3 -12 35 -9 l47 4 -40 13 c-22 7 -48 13 -57 13 -17 1 -18 64 -18 1170 l0 1170 -42 4 -43 4 43 1 c70 3 48 19 -35 26 -141 11 -486 14 -603 5z"/>
<path d="M2670 5120 c0 -1740 3 -2620 10 -2620 7 0 10 880 10 2620 0 1740 -3 2620 -10 2620 -7 0 -10 -880 -10 -2620z"/>
<path d="M5633 7673 c9 -2 25 -2 35 0 9 3 1 5 -18 5 -19 0 -27 -2 -17 -5z"/>
<path d="M5703 7653 c9 -2 23 -2 30 0 6 3 -1 5 -18 5 -16 0 -22 -2 -12 -5z"/>
<path d="M5768 7633 c6 -2 18 -2 25 0 6 3 1 5 -13 5 -14 0 -19 -2 -12 -5z"/>
<path d="M3265 1910 c10 -11 20 -20 23 -20 3 0 -3 9 -13 20 -10 11 -20 20 -23 20 -3 0 3 -9 13 -20z"/>
<path d="M3395 1783 c73 -78 56 -84 -20 -8 -30 31 -55 52 -55 47 0 -4 23 -30 50 -57 l50 -49 0 -628 c0 -496 3 -628 13 -628 8 0 7 -3 -3 -10 -8 -5 -12 -11 -10 -13 13 -10 115 -47 129 -47 10 0 21 -4 27 -8 5 -5 29 -14 54 -21 25 -7 54 -17 65 -21 11 -4 39 -13 63 -19 23 -6 61 -16 85 -22 23 -6 53 -15 67 -19 124 -39 451 -96 680 -119 156 -16 450 -35 455 -30 2 3 -381 389 -853 859 -471 470 -830 827 -797 793z m160 -163 c55 -55 97 -100 95 -100 -3 0 -50 45 -105 100 -55 55 -97 100 -95 100 3 0 50 -45 105 -100z"/>
</g>
</g>
  <g id="id8:id8" transform="matrix(1.25,0,0,1.25,0.0,0.0)"><g transform="translate(0.000000,409.600000) scale(0.040000,-0.040000)" fill="#00a7e9" stroke="none">
<path d="M0 5120 l0 -5120 5120 0 5120 0 0 5120 0 5120 -5120 0 -5120 0 0 -5120z m5400 5000 c1115 -65 2138 -479 2990 -1208 110 -95 378 -361 489 -487 649 -735 1068 -1648 1200 -2615 37 -266 44 -383 44 -690 0 -307 -7 -424 -44 -690 -121 -885 -476 -1713 -1042 -2426 -222 -281 -517 -575 -811 -809 -703 -561 -1561 -925 -2451 -1040 -256 -33 -353 -38 -655 -38 -326 0 -490 11 -760 53 -693 107 -1343 353 -1935 731 -105 67 -288 195 -341 238 -17 14 -60 48 -95 76 -245 191 -583 532 -800 805 -881 1112 -1246 2555 -1003 3960 153 886 540 1703 1143 2410 151 178 482 496 660 635 35 28 78 62 95 76 98 80 391 275 551 366 847 483 1807 710 2765 653z"/>
<path d="M4893 10103 c9 -2 23 -2 30 0 6 3 -1 5 -18 5 -16 0 -22 -2 -12 -5z"/>
<path d="M5308 10103 c12 -2 30 -2 40 0 9 3 -1 5 -23 4 -22 0 -30 -2 -17 -4z"/>
<path d="M4743 10093 c15 -2 37 -2 50 0 12 2 0 4 -28 4 -27 0 -38 -2 -22 -4z"/>
<path d="M5438 10093 c71 -4 83 -20 20 -26 l-43 -4 43 -1 42 -2 0 -1170 c0 -1107 1 -1170 18 -1171 9 0 35 -6 57 -14 l40 -13 -43 -1 c-27 -1 -41 3 -37 9 4 6 -16 10 -52 10 -41 0 -54 -3 -43 -10 8 -5 32 -10 52 -10 20 0 40 -4 43 -10 3 -5 19 -10 35 -10 16 0 39 -4 52 -9 13 -5 43 -14 68 -21 70 -19 253 -81 275 -93 11 -6 26 -12 34 -13 23 -4 244 -114 264 -132 9 -8 17 -12 17 -7 0 4 15 -4 34 -18 18 -15 36 -23 40 -20 3 4 6 1 6 -5 0 -7 6 -12 13 -12 7 0 22 -8 33 -17 10 -10 31 -24 47 -32 15 -8 27 -18 27 -23 0 -4 6 -8 14 -8 8 0 17 -7 20 -16 4 -9 9 -14 12 -11 3 3 22 -9 41 -26 19 -18 37 -31 40 -29 2 2 16 -10 32 -25 67 -68 163 -155 136 -123 -16 19 3 4 43 -35 77 -74 100 -105 30 -40 l-43 40 39 -42 c21 -23 42 -41 47 -40 4 1 30 -22 58 -51 31 -32 55 -51 62 -46 8 5 9 3 4 -5 -8 -14 479 -510 490 -499 3 3 -56 68 -132 145 l-138 138 2 1514 c2 1151 0 1518 -9 1528 -8 10 -23 13 -47 9 -23 -4 -29 -3 -17 3 27 11 4 23 -31 16 -21 -4 -23 -3 -8 3 20 9 7 17 -80 52 -11 4 -41 17 -67 29 -26 12 -52 21 -58 21 -6 0 -18 4 -28 9 -31 16 -66 29 -132 51 -36 12 -74 25 -85 29 -11 5 -54 19 -95 31 -41 12 -86 26 -100 30 -27 8 -86 24 -147 39 -35 9 -56 14 -175 40 -213 48 -494 87 -674 94 -60 2 -81 2 -46 0z m230 -2420 c-10 -2 -26 -2 -35 0 -10 3 -2 5 17 5 19 0 27 -2 18 -5z m65 -20 c-7 -2 -21 -2 -30 0 -10 3 -4 5 12 5 17 0 24 -2 18 -5z m60 -20 c-7 -2 -19 -2 -25 0 -7 3 -2 5 12 5 14 0 19 -2 13 -5z m1287 -875 c0 -5 -11 2 -25 16 -14 14 -25 28 -25 32 0 4 11 -3 25 -16 14 -13 25 -27 25 -32z m145 -138 c3 -5 1 -10 -4 -10 -6 0 -11 5 -11 10 0 6 2 10 4 10 3 0 8 -4 11 -10z"/>
<path d="M4735 7760 c191 -11 355 -11 355 0 0 6 -85 9 -237 8 -209 -1 -223 -2 -118 -8z"/>
<path d="M5175 7740 c3 -5 30 -10 60 -10 30 0 57 5 60 10 4 6 -18 10 -60 10 -42 0 -64 -4 -60 -10z"/>
<path d="M5330 7720 c8 -5 31 -10 50 -10 19 0 42 5 50 10 11 7 -4 10 -50 10 -46 0 -61 -3 -50 -10z"/>
<path d="M7650 6160 c0 -5 5 -10 11 -10 5 0 7 5 4 10 -3 6 -8 10 -11 10 -2 0 -4 -4 -4 -10z"/>
<path d="M7710 6100 c0 -5 5 -10 11 -10 5 0 7 5 4 10 -3 6 -8 10 -11 10 -2 0 -4 -4 -4 -10z"/>
<path d="M2730 2456 c0 -2 8 -10 18 -17 15 -13 16 -12 3 4 -13 16 -21 21 -21 13z"/>
<path d="M2810 2376 c0 -2 8 -10 18 -17 15 -13 16 -12 3 4 -13 16 -21 21 -21 13z"/>
<path d="M2870 2315 c13 -14 26 -25 28 -25 3 0 -5 11 -18 25 -13 14 -26 25 -28 25 -3 0 5 -11 18 -25z"/>
<path d="M2950 2238 c41 -45 50 -53 50 -45 0 2 -21 23 -47 47 l-48 45 45 -47z"/>
<path d="M4030 1158 c563 -565 1026 -1025 1029 -1023 2 3 2 6 0 8 -3 1 -466 461 -1029 1022 l-1025 1020 1025 -1027z"/>
<path d="M4528 163 c7 -3 16 -2 19 1 4 3 -2 6 -13 5 -11 0 -14 -3 -6 -6z"/>
<path d="M4743 143 c15 -2 37 -2 50 0 12 2 0 4 -28 4 -27 0 -38 -2 -22 -4z"/>
<path d="M4893 133 c9 -2 23 -2 30 0 6 3 -1 5 -18 5 -16 0 -22 -2 -12 -5z"/>
</g>
</g>
  <g id="id9:id9" transform="matrix(1.25,0,0,1.25,0.0,0.0)"><g transform="translate(0.000000,409.600000) scale(0.040000,-0.040000)" fill="#009fe1" stroke="none">
<path d="M0 5120 l0 -5120 5120 0 5120 0 0 5120 0 5120 -5120 0 -5120 0 0 -5120z m5400 5000 c1115 -65 2138 -479 2990 -1208 110 -95 378 -361 489 -487 649 -735 1068 -1648 1200 -2615 37 -266 44 -383 44 -690 0 -307 -7 -424 -44 -690 -121 -885 -476 -1713 -1042 -2426 -222 -281 -517 -575 -811 -809 -703 -561 -1561 -925 -2451 -1040 -256 -33 -353 -38 -655 -38 -326 0 -490 11 -760 53 -693 107 -1343 353 -1935 731 -105 67 -288 195 -341 238 -17 14 -60 48 -95 76 -245 191 -583 532 -800 805 -881 1112 -1246 2555 -1003 3960 153 886 540 1703 1143 2410 151 178 482 496 660 635 35 28 78 62 95 76 98 80 391 275 551 366 847 483 1807 710 2765 653z"/>
<path d="M6847 9799 c7 -7 15 -10 18 -7 3 3 -2 9 -12 12 -14 6 -15 5 -6 -5z"/>
<path d="M6898 9778 c5 -5 16 -8 23 -6 8 3 3 7 -10 11 -17 4 -21 3 -13 -5z"/>
<path d="M6998 9738 c5 -5 16 -8 23 -6 8 3 3 7 -10 11 -17 4 -21 3 -13 -5z"/>
<path d="M7047 9719 c7 -7 15 -10 18 -7 3 3 -2 9 -12 12 -14 6 -15 5 -6 -5z"/>
<path d="M7097 9699 c7 -7 15 -10 18 -7 3 3 -2 9 -12 12 -14 6 -15 5 -6 -5z"/>
<path d="M7135 9680 c3 -6 -2 -10 -12 -11 -10 0 -13 -3 -6 -5 7 -3 20 -1 29 4 15 8 15 9 0 15 -10 4 -15 3 -11 -3z"/>
<path d="M7175 9660 c3 -5 -2 -10 -11 -10 -10 0 -15 -2 -12 -5 3 -4 18 -3 33 1 20 5 23 9 13 15 -18 12 -31 11 -23 -1z"/>
<path d="M7228 9638 c9 -12 11 -353 9 -1529 l-2 -1514 138 -138 c76 -77 136 -142 132 -145 -3 -3 -108 95 -233 218 l-227 225 229 -232 c127 -128 232 -230 235 -228 6 3 26 -15 29 -27 1 -5 5 -8 8 -7 4 0 12 -10 19 -23 6 -13 17 -22 23 -21 7 2 12 -5 12 -14 0 -9 3 -14 6 -10 7 7 34 -17 34 -31 0 -15 46 -53 55 -45 4 5 5 3 2 -3 -8 -14 26 -47 37 -37 4 5 6 1 4 -7 -2 -8 2 -14 7 -14 12 2 62 -48 57 -56 -2 -3 4 -9 13 -15 9 -5 284 -278 610 -605 327 -327 596 -592 599 -589 3 3 -2 14 -12 24 -16 17 -17 113 -15 1724 3 1874 8 1711 -56 1784 -89 101 -111 121 -111 104 0 -10 5 -15 10 -12 6 3 10 0 10 -7 0 -8 9 -20 20 -28 11 -8 20 -20 20 -28 0 -7 5 -10 10 -7 6 3 10 0 10 -7 0 -8 9 -20 20 -28 11 -8 20 -20 20 -28 0 -7 5 -10 10 -7 6 3 10 -1 10 -9 0 -9 5 -16 10 -16 6 0 10 -8 10 -17 0 -18 -39 20 -98 97 -15 19 -37 46 -50 59 -17 17 -22 30 -18 47 7 25 -8 34 -18 12 -3 -7 -4 -4 -1 7 5 23 -99 140 -115 130 -6 -4 -7 1 -3 11 5 13 3 16 -10 11 -10 -4 -14 -2 -11 7 2 6 -28 43 -68 82 -398 379 -802 666 -1258 894 -68 34 -119 56 -112 48z m437 -3478 c3 -5 1 -10 -4 -10 -6 0 -11 5 -11 10 0 6 2 10 4 10 3 0 8 -4 11 -10z m60 -60 c3 -5 1 -10 -4 -10 -6 0 -11 5 -11 10 0 6 2 10 4 10 3 0 8 -4 11 -10z"/>
<path d="M6816 6990 c39 -41 81 -88 92 -104 12 -16 22 -22 22 -15 0 8 -42 55 -92 104 -84 82 -86 83 -22 15z"/>
<path d="M7030 6806 c0 -4 11 -18 25 -32 14 -14 25 -21 25 -16 0 5 -11 19 -25 32 -14 13 -25 20 -25 16z"/>
<path d="M7210 6620 c0 -5 5 -10 11 -10 5 0 7 5 4 10 -3 6 -8 10 -11 10 -2 0 -4 -4 -4 -10z"/>
<path d="M9110 4706 c0 -10 50 -59 56 -54 2 3 -10 17 -26 33 -17 16 -30 25 -30 21z"/>
<path d="M8953 1954 c-24 -24 -43 -49 -43 -55 0 -6 -4 -7 -10 -4 -5 3 -10 -1 -10 -10 0 -11 -5 -15 -14 -12 -11 4 -13 1 -9 -10 5 -12 2 -15 -9 -10 -12 4 -14 1 -10 -16 5 -19 3 -20 -10 -9 -14 11 -16 10 -11 -9 6 -21 8 -20 40 17 19 21 50 56 69 77 34 37 70 87 63 87 -2 0 -23 -21 -46 -46z"/>
<path d="M8620 1710 c-58 -60 -108 -109 -112 -109 -5 -1 -8 17 -8 39 0 22 -2 40 -5 40 -3 0 -59 -54 -125 -120 -66 -66 -122 -120 -125 -120 -3 0 -5 18 -5 40 0 22 -4 40 -10 40 -5 0 -10 18 -10 40 0 22 -2 40 -5 40 -3 0 -46 -40 -95 -90 -49 -49 -92 -90 -95 -90 -3 0 -5 14 -5 30 0 17 -2 30 -5 30 -3 0 -46 -40 -95 -90 -49 -49 -92 -90 -95 -90 -3 0 -5 18 -5 40 0 22 -3 40 -6 40 -3 0 -19 -13 -34 -30 -15 -16 -31 -30 -34 -30 -3 0 -6 18 -6 40 0 22 -2 40 -5 40 -3 0 -55 -49 -115 -110 -60 -60 -112 -110 -115 -110 -3 0 -5 18 -5 40 0 22 -2 40 -5 40 -3 0 -59 -54 -125 -120 -66 -66 -122 -120 -125 -120 -3 0 -5 14 -5 30 0 17 -4 30 -10 30 -5 0 -10 18 -10 40 0 22 -2 40 -5 40 -3 0 -50 -45 -105 -100 -55 -55 -102 -100 -105 -100 -3 0 -5 18 -5 40 0 22 -2 40 -5 40 -3 0 -59 -54 -125 -120 -66 -66 -122 -120 -125 -120 -3 0 -5 18 -5 40 0 22 -2 40 -5 40 -3 0 -55 -49 -115 -110 -60 -60 -112 -110 -115 -110 -3 0 -5 14 -5 30 0 37 -5 37 -40 0 -15 -16 -31 -30 -34 -30 -3 0 -6 18 -6 40 0 22 -2 40 -5 40 -3 0 -46 -40 -95 -90 -49 -49 -92 -90 -95 -90 -3 0 -5 18 -5 40 0 22 -2 40 -5 40 -3 0 -50 -45 -105 -100 -55 -55 -102 -100 -105 -100 -3 0 -5 18 -5 40 0 22 -2 40 -5 40 -3 0 -41 -36 -85 -80 -44 -44 -82 -80 -85 -80 -3 0 -5 14 -5 30 0 17 -2 30 -5 30 -3 0 -46 -40 -95 -90 -49 -49 -92 -90 -95 -90 -3 0 -5 18 -5 40 0 22 -2 40 -5 40 -3 0 -37 -32 -77 -71 l-72 -71 52 7 c35 5 52 3 52 -4 0 -7 -22 -11 -54 -11 -30 0 -58 -5 -62 -11 -5 -9 17 -10 82 -5 248 18 495 56 739 114 22 6 56 13 75 17 19 4 46 10 60 15 14 4 45 13 70 20 25 7 65 20 90 28 25 8 59 18 75 22 47 12 235 79 282 101 24 10 49 19 56 19 7 0 17 4 23 8 5 5 25 15 44 22 47 17 119 50 285 132 167 82 210 105 335 181 52 32 104 63 115 70 104 63 374 258 500 361 143 118 386 349 381 362 -3 9 0 11 11 7 13 -5 15 -2 10 11 -4 10 -3 15 3 11 5 -3 20 5 32 18 81 84 88 94 82 110 -9 25 -26 20 -20 -5 3 -13 3 -17 0 -10 -10 21 -26 13 -18 -10 6 -20 5 -21 -10 -6 -9 9 -16 28 -16 42 0 14 -3 26 -7 25 -5 0 -55 -49 -113 -109z"/>
<path d="M8800 1813 c0 -14 19 -38 25 -32 8 8 -5 39 -16 39 -5 0 -9 -3 -9 -7z"/>
<path d="M4285 910 c38 -38 72 -70 74 -70 3 0 -26 32 -64 70 -38 39 -72 70 -74 70 -3 0 26 -31 64 -70z"/>
<path d="M4705 493 c186 -188 341 -340 344 -337 3 2 -6 15 -20 27 -13 13 -168 165 -344 337 l-320 314 340 -341z"/>
<path d="M5393 205 c-18 -20 -16 -25 7 -25 13 0 20 7 20 20 0 23 -10 25 -27 5z"/>
<path d="M5353 163 c-27 -10 -11 -18 27 -15 22 2 40 8 40 13 0 9 -46 11 -67 2z"/>
<path d="M5060 140 c0 -5 5 -10 11 -10 5 0 7 5 4 10 -3 6 -8 10 -11 10 -2 0 -4 -4 -4 -10z"/>
<path d="M5183 133 c15 -2 39 -2 55 0 15 2 2 4 -28 4 -30 0 -43 -2 -27 -4z"/>
</g>
</g>
  <g id="id10:id10" transform="matrix(1.25,0,0,1.25,0.0,0.0)"><g transform="translate(0.000000,409.600000) scale(0.040000,-0.040000)" fill="#0099db" stroke="none">
<path d="M0 5120 l0 -5120 5120 0 5120 0 0 5120 0 5120 -5120 0 -5120 0 0 -5120z m5400 5000 c1128 -66 2162 -488 3015 -1231 112 -97 234 -219 220 -219 -4 0 2 -11 14 -24 14 -15 20 -30 16 -38 -6 -10 -5 -11 5 -1 11 11 10 17 -10 38 -13 14 -21 25 -18 25 8 0 188 -186 265 -275 630 -725 1042 -1635 1172 -2585 37 -266 44 -383 44 -690 0 -307 -7 -424 -44 -690 -132 -967 -547 -1871 -1201 -2616 -78 -90 -241 -254 -208 -211 10 14 11 20 1 30 -10 9 -11 8 -6 -4 4 -10 2 -20 -4 -23 -6 -4 -9 -12 -7 -19 2 -7 -51 -63 -118 -126 -119 -112 -181 -158 -121 -90 l30 34 -32 -29 c-18 -16 -30 -32 -28 -36 6 -9 -52 -63 -165 -151 -713 -562 -1559 -919 -2445 -1034 -256 -33 -353 -38 -655 -38 -326 0 -490 11 -760 53 -693 107 -1343 353 -1935 731 -105 67 -288 195 -341 238 -17 14 -60 48 -95 76 -245 191 -583 532 -800 805 -881 1112 -1246 2555 -1003 3960 153 886 540 1703 1143 2410 151 178 482 496 660 635 35 28 78 62 95 76 98 80 391 275 551 366 847 483 1807 710 2765 653z"/>
<path d="M8160 9076 c0 -2 8 -10 18 -17 15 -13 16 -12 3 4 -13 16 -21 21 -21 13z"/>
<path d="M8310 8956 c0 -2 8 -10 18 -17 15 -13 16 -12 3 4 -13 16 -21 21 -21 13z"/>
<path d="M8400 8875 c13 -14 26 -25 28 -25 3 0 -5 11 -18 25 -13 14 -26 25 -28 25 -3 0 5 -11 18 -25z"/>
<path d="M8490 8795 c13 -14 26 -25 28 -25 3 0 -5 11 -18 25 -13 14 -26 25 -28 25 -3 0 5 -11 18 -25z"/>
<path d="M8765 8520 c21 -22 41 -40 44 -40 3 0 -13 18 -34 40 -21 22 -41 40 -44 40 -3 0 13 -18 34 -40z"/>
<path d="M8805 8459 c-4 -6 -5 -12 -2 -15 2 -3 7 2 10 11 7 17 1 20 -8 4z"/>
<path d="M8827 8443 c-13 -12 -7 -32 16 -55 12 -13 34 -39 49 -58 15 -19 43 -52 62 -74 29 -33 35 -36 39 -20 2 11 4 -751 3 -1692 -1 -1615 0 -1712 16 -1729 10 -10 16 -21 13 -24 -3 -3 -273 263 -601 590 -327 326 -598 596 -602 599 -4 2 265 -269 597 -602 333 -334 609 -605 613 -602 5 3 7 0 6 -8 -2 -7 3 -12 9 -11 7 2 12 -3 10 -10 -1 -6 4 -11 10 -10 7 2 12 -3 10 -10 -1 -6 4 -11 11 -9 8 1 11 -1 8 -6 -7 -12 68 -84 79 -75 4 5 5 3 2 -3 -8 -14 26 -47 38 -37 4 5 5 3 2 -3 -3 -5 160 -176 362 -378 l369 -368 5 33 c3 19 11 54 17 79 153 611 175 1369 60 2025 -27 156 -39 212 -81 378 -6 23 -13 57 -16 75 -3 18 -9 35 -14 38 -5 3 -9 16 -9 30 0 13 -4 32 -9 42 -5 9 -19 51 -31 92 -12 41 -26 84 -30 95 -4 11 -13 36 -20 55 -7 19 -16 44 -20 55 -4 11 -18 47 -30 80 -12 33 -31 79 -41 102 -11 24 -19 45 -19 48 0 7 -56 129 -116 250 -162 330 -329 594 -569 902 -41 53 -50 61 -63 50 -13 -10 -15 -9 -10 11 4 12 2 20 -3 16 -11 -6 -39 20 -39 37 0 8 8 5 23 -7 l22 -19 -19 22 c-16 19 -22 21 -34 10 -13 -10 -15 -9 -10 10 4 16 2 20 -8 16 -8 -3 -14 -1 -14 5 0 6 5 12 10 14 6 2 -2 16 -18 31 -15 15 -31 24 -35 20z m43 -45 c0 -4 -4 -8 -10 -8 -5 0 -10 7 -10 16 0 8 -4 12 -10 9 -5 -3 -10 2 -10 11 0 16 1 16 20 -1 11 -10 20 -22 20 -27z m120 -139 c0 -5 -4 -9 -10 -9 -5 0 -10 7 -10 16 0 8 5 12 10 9 6 -3 10 -10 10 -16z m176 -3607 c-6 -5 -56 44 -56 54 0 4 13 -5 30 -21 16 -16 28 -30 26 -33z"/>
<path d="M6970 6827 c0 -2 15 -16 33 -33 l32 -29 -29 33 c-28 30 -36 37 -36 29z"/>
<path d="M7610 6186 c0 -2 8 -10 18 -17 15 -13 16 -12 3 4 -13 16 -21 21 -21 13z"/>
<path d="M7765 6030 c10 -11 20 -20 23 -20 3 0 -3 9 -13 20 -10 11 -20 20 -23 20 -3 0 3 -9 13 -20z"/>
<path d="M9688 3155 c-10 -13 -18 -29 -18 -35 0 -6 -4 -8 -10 -5 -5 3 -41 -26 -79 -64 -39 -39 -73 -71 -76 -71 -3 0 -5 18 -5 40 0 22 -3 40 -6 40 -3 0 -19 -13 -34 -30 -15 -16 -31 -30 -34 -30 -3 0 -6 18 -6 40 0 22 -2 40 -5 40 -3 0 -46 -40 -95 -90 -49 -49 -92 -90 -95 -90 -3 0 -5 18 -5 40 0 22 -2 40 -5 40 -3 0 -50 -45 -105 -100 -55 -55 -102 -100 -105 -100 -3 0 -5 14 -5 30 0 17 -2 30 -5 30 -3 0 -59 -54 -125 -120 -66 -66 -122 -120 -125 -120 -3 0 -5 18 -5 40 0 22 -2 40 -5 40 -3 0 -55 -49 -115 -110 -60 -60 -112 -110 -115 -110 -3 0 -5 18 -5 40 0 22 -2 40 -5 40 -3 0 -59 -54 -125 -120 -66 -66 -122 -120 -125 -120 -3 0 -5 18 -5 40 0 22 -2 40 -5 40 -3 0 -50 -45 -105 -100 -55 -55 -102 -100 -105 -100 -3 0 -5 14 -5 30 0 17 -4 30 -10 30 -5 0 -10 18 -10 40 0 22 -2 40 -5 40 -3 0 -41 -36 -85 -80 -44 -44 -82 -80 -85 -80 -3 0 -5 18 -5 40 0 22 -2 40 -5 40 -3 0 -46 -40 -95 -90 -49 -49 -92 -90 -95 -90 -3 0 -5 18 -5 40 0 22 -2 40 -5 40 -3 0 -46 -40 -95 -90 -49 -49 -92 -90 -95 -90 -3 0 -5 14 -5 30 0 17 -2 30 -5 30 -3 0 -46 -40 -95 -90 -49 -49 -92 -90 -95 -90 -3 0 -5 18 -5 40 0 22 -2 40 -5 40 -3 0 -50 -45 -105 -100 -55 -55 -102 -100 -105 -100 -3 0 -5 18 -5 40 0 22 -2 40 -5 40 -3 0 -59 -54 -125 -120 -66 -66 -122 -120 -125 -120 -3 0 -5 18 -5 40 0 22 -2 40 -5 40 -3 0 -55 -49 -115 -110 -60 -60 -112 -110 -115 -110 -3 0 -5 14 -5 30 0 37 -5 37 -40 0 -15 -16 -31 -30 -34 -30 -3 0 -6 18 -6 40 0 22 -2 40 -5 40 -3 0 -46 -40 -95 -90 -49 -49 -92 -90 -95 -90 -3 0 -5 18 -5 40 0 22 -2 40 -5 40 -3 0 -50 -45 -105 -100 -55 -55 -102 -100 -105 -100 -3 0 -5 18 -5 40 0 22 -2 40 -5 40 -3 0 -59 -54 -125 -120 -66 -66 -122 -120 -125 -120 -3 0 -5 27 -5 60 0 33 -2 60 -5 60 -3 0 -55 -49 -115 -110 -60 -60 -112 -110 -115 -110 -3 0 -5 14 -5 30 0 17 -2 30 -5 30 -3 0 -59 -54 -125 -120 -66 -66 -122 -120 -125 -120 -3 0 -5 18 -5 40 0 22 -2 40 -5 40 -3 0 -95 -89 -204 -199 -109 -109 -203 -200 -210 -202 -9 -3 -5 -14 11 -34 l23 -30 -37 29 c-27 20 -38 36 -38 55 0 20 -2 23 -10 11 -8 -12 -26 1 -98 70 -49 47 23 -26 159 -161 l248 -246 124 1 c103 1 126 4 141 19 18 18 76 24 76 8 0 -6 -17 -12 -37 -14 -21 -2 -6 -4 32 -4 39 0 62 1 52 4 -34 9 -5 23 49 23 32 0 54 4 54 11 0 7 -17 9 -52 4 l-52 -7 72 71 c40 39 74 71 77 71 3 0 5 -18 5 -40 0 -22 2 -40 5 -40 3 0 46 41 95 90 49 50 92 90 95 90 3 0 5 -13 5 -30 0 -16 2 -30 5 -30 3 0 41 36 85 80 44 44 82 80 85 80 3 0 5 -18 5 -40 0 -22 2 -40 5 -40 3 0 50 45 105 100 55 55 102 100 105 100 3 0 5 -18 5 -40 0 -22 2 -40 5 -40 3 0 46 41 95 90 49 50 92 90 95 90 3 0 5 -18 5 -40 0 -22 3 -40 6 -40 3 0 19 14 34 30 35 37 40 37 40 0 0 -16 2 -30 5 -30 3 0 55 50 115 110 60 61 112 110 115 110 3 0 5 -18 5 -40 0 -22 2 -40 5 -40 3 0 59 54 125 120 66 66 122 120 125 120 3 0 5 -18 5 -40 0 -22 2 -40 5 -40 3 0 50 45 105 100 55 55 102 100 105 100 3 0 5 -18 5 -40 0 -22 5 -40 10 -40 6 0 10 -13 10 -30 0 -16 2 -30 5 -30 3 0 59 54 125 120 66 66 122 120 125 120 3 0 5 -18 5 -40 0 -22 2 -40 5 -40 3 0 55 50 115 110 60 61 112 110 115 110 3 0 5 -18 5 -40 0 -22 3 -40 6 -40 3 0 19 14 34 30 15 17 31 30 34 30 3 0 6 -18 6 -40 0 -22 2 -40 5 -40 3 0 46 41 95 90 49 50 92 90 95 90 3 0 5 -13 5 -30 0 -16 2 -30 5 -30 3 0 46 41 95 90 49 50 92 90 95 90 3 0 5 -18 5 -40 0 -22 5 -40 10 -40 6 0 10 -18 10 -40 0 -22 2 -40 5 -40 3 0 59 54 125 120 66 66 122 120 125 120 3 0 5 -18 5 -40 0 -22 2 -40 5 -40 3 0 55 50 115 110 60 61 112 110 115 110 3 0 5 -12 5 -26 0 -14 7 -33 16 -42 15 -15 16 -14 10 6 -8 23 8 31 18 10 3 -7 3 -3 0 10 -6 26 3 29 23 5 13 -16 13 -16 3 5 -14 29 -5 42 13 18 11 -16 15 -14 42 14 16 16 24 30 18 30 -6 0 -13 7 -17 15 -4 12 -2 13 13 6 14 -8 24 -4 46 19 16 17 23 30 17 30 -7 0 -12 5 -12 11 0 6 7 9 14 6 11 -4 13 -1 9 10 -5 12 -2 15 9 10 12 -4 39 25 104 111 135 179 158 212 206 287 25 39 61 96 82 128 20 32 46 74 57 93 10 19 29 51 41 72 12 20 61 115 110 211 62 121 88 182 85 200 -2 14 -2 20 0 14 7 -20 23 -15 23 7 0 11 3 20 8 20 6 0 34 72 29 76 -1 1 -10 -8 -19 -21z m-61 -127 c-3 -8 -6 -5 -6 6 -1 11 2 17 5 13 3 -3 4 -12 1 -19z m-637 -1049 c-7 -11 -14 -18 -17 -15 -3 3 0 12 7 21 18 21 23 19 10 -6z m-60 -67 c0 -5 -9 -17 -20 -27 -19 -17 -20 -17 -20 -1 0 9 5 14 10 11 6 -3 10 1 10 9 0 9 5 16 10 16 6 0 10 -4 10 -8z m-60 -72 c0 -4 -8 -15 -19 -24 -17 -16 -19 -16 -24 4 -5 18 -3 19 11 8 13 -11 15 -10 10 9 -4 16 -2 20 8 16 8 -3 14 -8 14 -13z m-3450 -1640 c0 -13 -7 -20 -20 -20 -23 0 -25 5 -7 25 17 20 27 18 27 -5z"/>
<path d="M8774 1728 l-29 -33 33 29 c17 17 32 31 32 33 0 8 -8 1 -36 -29z"/>
<path d="M3940 1255 c151 -151 277 -275 280 -275 3 0 -119 124 -270 275 -151 151 -277 275 -280 275 -3 0 119 -124 270 -275z"/>
<path d="M8510 1465 c-24 -25 -42 -45 -39 -45 3 0 25 20 49 45 24 25 42 45 39 45 -3 0 -25 -20 -49 -45z"/>
<path d="M8089 1113 c-13 -16 -12 -17 4 -4 9 7 17 15 17 17 0 8 -8 3 -21 -13z"/>
<path d="M4510 697 c0 -2 15 -16 33 -33 l32 -29 -29 33 c-28 30 -36 37 -36 29z"/>
<path d="M6258 263 c7 -3 16 -2 19 1 4 3 -2 6 -13 5 -11 0 -14 -3 -6 -6z"/>
<path d="M6168 243 c7 -3 16 -2 19 1 4 3 -2 6 -13 5 -11 0 -14 -3 -6 -6z"/>
<path d="M6068 223 c6 -2 18 -2 25 0 6 3 1 5 -13 5 -14 0 -19 -2 -12 -5z"/>
<path d="M5958 203 c6 -2 18 -2 25 0 6 3 1 5 -13 5 -14 0 -19 -2 -12 -5z"/>
<path d="M5823 183 c9 -2 23 -2 30 0 6 3 -1 5 -18 5 -16 0 -22 -2 -12 -5z"/>
<path d="M5653 163 c9 -2 25 -2 35 0 9 3 1 5 -18 5 -19 0 -27 -2 -17 -5z"/>
<path d="M5608 153 c7 -3 16 -2 19 1 4 3 -2 6 -13 5 -11 0 -14 -3 -6 -6z"/>
</g>
</g>
  <g id="id11:id11" transform="matrix(1.25,0,0,1.25,0.0,0.0)"><g transform="translate(0.000000,409.600000) scale(0.040000,-0.040000)" fill="#0095d1" stroke="none">
<path d="M0 5120 l0 -5120 5120 0 5120 0 0 5120 0 5120 -5120 0 -5120 0 0 -5120z m5400 5000 c1115 -65 2138 -479 2990 -1208 110 -95 378 -361 489 -487 649 -735 1068 -1648 1200 -2615 37 -266 44 -383 44 -690 0 -307 -7 -424 -44 -690 -108 -794 -407 -1546 -878 -2210 -90 -127 -111 -151 -124 -143 -6 3 -7 1 -3 -5 11 -19 -156 -228 -174 -217 -4 3 -7 -2 -6 -11 1 -15 -230 -271 -247 -273 -5 -1 -5 4 -1 11 4 7 3 8 -5 4 -6 -4 -9 -11 -7 -15 6 -9 -137 -150 -249 -246 -735 -634 -1653 -1046 -2610 -1170 -256 -33 -353 -38 -655 -38 -326 0 -490 11 -760 53 -693 107 -1343 353 -1935 731 -105 67 -288 195 -341 238 -17 14 -60 48 -95 76 -245 191 -583 532 -800 805 -881 1112 -1246 2555 -1003 3960 153 886 540 1703 1143 2410 151 178 482 496 660 635 35 28 78 62 95 76 98 80 391 275 551 366 847 483 1807 710 2765 653z"/>
<path d="M9790 6861 c0 -6 4 -13 10 -16 6 -3 7 1 4 9 -7 18 -14 21 -14 7z"/>
<path d="M9891 6564 c0 -11 3 -14 6 -6 3 7 2 16 -1 19 -3 4 -6 -2 -5 -13z"/>
<path d="M9911 6494 c0 -11 3 -14 6 -6 3 7 2 16 -1 19 -3 4 -6 -2 -5 -13z"/>
<path d="M9931 6424 c0 -11 3 -14 6 -6 3 7 2 16 -1 19 -3 4 -6 -2 -5 -13z"/>
<path d="M9951 6344 c0 -11 3 -14 6 -6 3 7 2 16 -1 19 -3 4 -6 -2 -5 -13z"/>
<path d="M9971 6264 c0 -11 3 -14 6 -6 3 7 2 16 -1 19 -3 4 -6 -2 -5 -13z"/>
<path d="M9991 6174 c0 -11 3 -14 6 -6 3 7 2 16 -1 19 -3 4 -6 -2 -5 -13z"/>
<path d="M10012 6080 c0 -14 2 -19 5 -12 2 6 2 18 0 25 -3 6 -5 1 -5 -13z"/>
<path d="M10032 5965 c0 -16 2 -22 5 -12 2 9 2 23 0 30 -3 6 -5 -1 -5 -18z"/>
<path d="M10052 5840 c0 -19 2 -27 5 -17 2 9 2 25 0 35 -3 9 -5 1 -5 -18z"/>
<path d="M10073 5685 c0 -22 2 -30 4 -17 2 12 2 30 0 40 -3 9 -5 -1 -4 -23z"/>
<path d="M8100 5686 c0 -2 8 -10 18 -17 15 -13 16 -12 3 4 -13 16 -21 21 -21 13z"/>
<path d="M10081 5614 c0 -11 3 -14 6 -6 3 7 2 16 -1 19 -3 4 -6 -2 -5 -13z"/>
<path d="M8220 5566 c0 -2 8 -10 18 -17 15 -13 16 -12 3 4 -13 16 -21 21 -21 13z"/>
<path d="M10093 5460 c0 -36 2 -50 4 -32 2 17 2 47 0 65 -2 17 -4 3 -4 -33z"/>
<path d="M8340 5448 c3 -4 268 -271 590 -595 322 -323 621 -625 664 -669 l77 -82 -80 -81 c-44 -45 -83 -81 -86 -81 -3 0 -5 18 -5 40 0 22 -2 40 -5 40 -3 0 -59 -54 -125 -120 -66 -66 -122 -120 -125 -120 -3 0 -5 14 -5 30 0 17 -2 30 -5 30 -3 0 -50 -45 -105 -100 -55 -55 -102 -100 -105 -100 -3 0 -5 18 -5 40 0 22 -2 40 -5 40 -3 0 -46 -40 -95 -90 -49 -49 -92 -90 -95 -90 -3 0 -5 41 -5 90 0 50 -2 90 -5 90 -3 0 -46 -40 -95 -90 -49 -49 -92 -90 -95 -90 -3 0 -5 14 -5 30 0 17 -2 30 -5 30 -3 0 -46 -41 -95 -90 -49 -50 -92 -90 -95 -90 -3 0 -5 18 -5 40 0 22 -2 40 -5 40 -3 0 -41 -36 -85 -80 -44 -44 -82 -80 -85 -80 -3 0 -5 18 -5 40 0 22 -2 40 -5 40 -3 0 -55 -49 -115 -110 -60 -60 -112 -110 -115 -110 -3 0 -5 18 -5 40 0 22 -2 40 -5 40 -3 0 -59 -54 -125 -120 -66 -66 -122 -120 -125 -120 -3 0 -5 27 -5 60 0 33 -2 60 -5 60 -3 0 -55 -49 -115 -110 -60 -61 -112 -110 -115 -110 -3 0 -5 14 -5 30 0 17 -3 30 -6 30 -3 0 -19 -13 -34 -30 -15 -16 -31 -30 -34 -30 -3 0 -6 18 -6 40 0 22 -2 40 -5 40 -3 0 -46 -41 -95 -90 -49 -50 -92 -90 -95 -90 -3 0 -5 18 -5 40 0 22 -2 40 -5 40 -3 0 -50 -45 -105 -100 -55 -55 -102 -100 -105 -100 -3 0 -5 18 -5 40 0 22 -2 40 -5 40 -3 0 -59 -54 -125 -120 -66 -66 -122 -120 -125 -120 -3 0 -5 14 -5 30 0 17 -3 30 -6 30 -3 0 -27 -22 -54 -50 -27 -27 -51 -50 -54 -50 -3 0 -6 18 -6 40 0 22 -2 40 -5 40 -3 0 -46 -40 -95 -90 -49 -49 -92 -90 -95 -90 -3 0 -5 18 -5 40 0 22 -2 40 -5 40 -3 0 -46 -40 -95 -90 -49 -49 -92 -90 -95 -90 -3 0 -5 18 -5 40 0 22 -2 40 -5 40 -3 0 -50 -45 -105 -100 -55 -55 -102 -100 -105 -100 -3 0 -5 14 -5 30 0 17 -2 30 -5 30 -3 0 -59 -54 -125 -120 -66 -66 -122 -120 -125 -120 -3 0 -5 18 -5 40 0 22 -2 40 -5 40 -3 0 -55 -49 -115 -110 -60 -60 -112 -110 -115 -110 -3 0 -5 18 -5 40 0 22 -2 40 -5 40 -3 0 -64 -59 -135 -130 -71 -71 -132 -130 -135 -130 -3 0 -5 18 -5 40 0 22 -2 40 -5 40 -3 0 -50 -45 -105 -100 -55 -55 -102 -100 -105 -100 -3 0 -5 14 -5 30 0 17 -2 30 -5 30 -3 0 -154 -148 -335 -330 -181 -181 -332 -330 -335 -330 -3 0 -5 18 -5 40 0 22 -2 40 -5 40 -9 0 -65 -57 -65 -66 0 -4 19 -29 42 -54 l43 -45 -50 45 c-27 25 -124 117 -215 205 -91 88 -13 7 175 -179 518 -517 514 -513 525 -496 8 12 10 9 10 -11 0 -19 11 -35 38 -55 l37 -29 -23 30 c-16 20 -20 31 -11 34 7 2 101 93 210 202 109 110 201 199 204 199 3 0 5 -18 5 -40 0 -22 2 -40 5 -40 3 0 59 54 125 120 66 66 122 120 125 120 3 0 5 -13 5 -30 0 -16 2 -30 5 -30 3 0 55 49 115 110 60 60 112 110 115 110 3 0 5 -27 5 -60 0 -33 2 -60 5 -60 3 0 59 54 125 120 66 66 122 120 125 120 3 0 5 -18 5 -40 0 -22 2 -40 5 -40 3 0 50 45 105 100 55 55 102 100 105 100 3 0 5 -18 5 -40 0 -22 2 -40 5 -40 3 0 46 40 95 90 49 50 92 90 95 90 3 0 5 -18 5 -40 0 -22 3 -40 6 -40 3 0 19 14 34 30 35 37 40 37 40 0 0 -16 2 -30 5 -30 3 0 55 50 115 110 60 61 112 110 115 110 3 0 5 -18 5 -40 0 -22 2 -40 5 -40 3 0 59 54 125 120 66 66 122 120 125 120 3 0 5 -18 5 -40 0 -22 2 -40 5 -40 3 0 50 45 105 100 55 55 102 100 105 100 3 0 5 -18 5 -40 0 -22 2 -40 5 -40 3 0 46 41 95 90 49 50 92 90 95 90 3 0 5 -13 5 -30 0 -16 2 -30 5 -30 3 0 46 41 95 90 49 50 92 90 95 90 3 0 5 -18 5 -40 0 -22 2 -40 5 -40 3 0 46 41 95 90 49 50 92 90 95 90 3 0 5 -18 5 -40 0 -22 2 -40 5 -40 3 0 41 36 85 80 44 44 82 80 85 80 3 0 5 -18 5 -40 0 -22 5 -40 10 -40 6 0 10 -13 10 -30 0 -16 2 -30 5 -30 3 0 50 45 105 100 55 55 102 100 105 100 3 0 5 -18 5 -40 0 -22 2 -40 5 -40 3 0 59 54 125 120 66 66 122 120 125 120 3 0 5 -18 5 -40 0 -22 2 -40 5 -40 3 0 55 49 115 110 60 61 112 110 115 110 3 0 5 -18 5 -40 0 -22 2 -40 5 -40 3 0 59 54 125 120 66 66 122 120 125 120 3 0 5 -13 5 -30 0 -16 2 -30 5 -30 3 0 50 45 105 100 55 55 102 100 105 100 3 0 5 -18 5 -40 0 -22 2 -40 5 -40 3 0 46 41 95 90 49 50 92 90 95 90 3 0 5 -18 5 -40 0 -22 3 -40 6 -40 3 0 19 14 34 30 15 17 31 30 34 30 3 0 6 -18 6 -40 0 -22 2 -40 5 -40 3 0 37 32 76 71 38 38 74 67 79 64 6 -3 10 -1 10 5 0 15 36 61 42 54 10 -9 145 363 188 516 6 25 16 55 21 68 5 13 9 33 9 45 0 13 4 27 10 33 6 6 -273 291 -797 814 -444 443 -805 802 -803 798z"/>
<path d="M7531 5354 c0 -11 3 -14 6 -6 3 7 2 16 -1 19 -3 4 -6 -2 -5 -13z"/>
<path d="M10103 5325 c0 -22 2 -30 4 -17 2 12 2 30 0 40 -3 9 -5 -1 -4 -23z"/>
<path d="M10103 4915 c0 -22 2 -30 4 -17 2 12 2 30 0 40 -3 9 -5 -1 -4 -23z"/>
<path d="M7531 4884 c0 -11 3 -14 6 -6 3 7 2 16 -1 19 -3 4 -6 -2 -5 -13z"/>
<path d="M10093 4780 c0 -36 2 -50 4 -32 2 17 2 47 0 65 -2 17 -4 3 -4 -33z"/>
<path d="M7521 4804 c0 -11 3 -14 6 -6 3 7 2 16 -1 19 -3 4 -6 -2 -5 -13z"/>
<path d="M10081 4624 c0 -11 3 -14 6 -6 3 7 2 16 -1 19 -3 4 -6 -2 -5 -13z"/>
<path d="M10073 4555 c0 -22 2 -30 4 -17 2 12 2 30 0 40 -3 9 -5 -1 -4 -23z"/>
<path d="M10052 4400 c0 -19 2 -27 5 -17 2 9 2 25 0 35 -3 9 -5 1 -5 -18z"/>
<path d="M10032 4275 c0 -16 2 -22 5 -12 2 9 2 23 0 30 -3 6 -5 -1 -5 -18z"/>
<path d="M10012 4160 c0 -14 2 -19 5 -12 2 6 2 18 0 25 -3 6 -5 1 -5 -13z"/>
<path d="M9991 4064 c0 -11 3 -14 6 -6 3 7 2 16 -1 19 -3 4 -6 -2 -5 -13z"/>
<path d="M9971 3974 c0 -11 3 -14 6 -6 3 7 2 16 -1 19 -3 4 -6 -2 -5 -13z"/>
<path d="M9951 3894 c0 -11 3 -14 6 -6 3 7 2 16 -1 19 -3 4 -6 -2 -5 -13z"/>
<path d="M4818 3823 c7 -3 16 -2 19 1 4 3 -2 6 -13 5 -11 0 -14 -3 -6 -6z"/>
<path d="M7049 3543 c-13 -16 -12 -17 4 -4 9 7 17 15 17 17 0 8 -8 3 -21 -13z"/>
<path d="M6989 3463 c-13 -16 -12 -17 4 -4 9 7 17 15 17 17 0 8 -8 3 -21 -13z"/>
<path d="M6939 3403 c-13 -16 -12 -17 4 -4 16 13 21 21 13 21 -2 0 -10 -8 -17 -17z"/>
<path d="M6869 3323 l-34 -38 38 34 c34 33 42 41 34 41 -2 0 -19 -17 -38 -37z"/>
<path d="M6719 3173 l-24 -28 28 24 c15 14 27 26 27 28 0 8 -8 1 -31 -24z"/>
<path d="M9696 3145 c-9 -26 -7 -32 5 -12 6 10 9 21 6 23 -2 3 -7 -2 -11 -11z"/>
<path d="M6644 3108 l-19 -23 23 19 c12 11 22 21 22 23 0 8 -8 2 -26 -19z"/>
<path d="M9642 3080 c0 -8 3 -24 7 -34 7 -18 8 -18 14 -3 3 9 2 17 -3 17 -5 0 -11 8 -13 18 -3 11 -5 12 -5 2z"/>
<path d="M6589 3063 c-13 -16 -12 -17 4 -4 9 7 17 15 17 17 0 8 -8 3 -21 -13z"/>
<path d="M9621 3034 c0 -11 3 -14 6 -6 3 7 2 16 -1 19 -3 4 -6 -2 -5 -13z"/>
<path d="M9635 3009 c-4 -6 -5 -12 -2 -15 2 -3 7 2 10 11 7 17 1 20 -8 4z"/>
<path d="M9575 2889 c-4 -6 -5 -12 -2 -15 2 -3 7 2 10 11 7 17 1 20 -8 4z"/>
<path d="M6305 2870 c-16 -11 -25 -20 -20 -20 10 0 64 39 55 40 -3 0 -18 -9 -35 -20z"/>
<path d="M9555 2849 c-4 -6 -5 -12 -2 -15 2 -3 7 2 10 11 7 17 1 20 -8 4z"/>
<path d="M6250 2840 c-9 -6 -10 -10 -3 -10 6 0 15 5 18 10 8 12 4 12 -15 0z"/>
<path d="M9535 2809 c-4 -6 -5 -12 -2 -15 2 -3 7 2 10 11 7 17 1 20 -8 4z"/>
<path d="M6140 2780 c-9 -6 -10 -10 -3 -10 6 0 15 5 18 10 8 12 4 12 -15 0z"/>
<path d="M9515 2769 c-4 -6 -5 -12 -2 -15 2 -3 7 2 10 11 7 17 1 20 -8 4z"/>
<path d="M6010 2720 c-9 -6 -10 -10 -3 -10 6 0 15 5 18 10 8 12 4 12 -15 0z"/>
<path d="M5898 2673 c7 -3 16 -2 19 1 4 3 -2 6 -13 5 -11 0 -14 -3 -6 -6z"/>
<path d="M5855 2660 c-16 -7 -17 -9 -3 -9 9 -1 20 4 23 9 7 11 7 11 -20 0z"/>
<path d="M5788 2633 c7 -3 16 -2 19 1 4 3 -2 6 -13 5 -11 0 -14 -3 -6 -6z"/>
<path d="M5728 2613 c7 -3 16 -2 19 1 4 3 -2 6 -13 5 -11 0 -14 -3 -6 -6z"/>
<path d="M5658 2593 c7 -3 16 -2 19 1 4 3 -2 6 -13 5 -11 0 -14 -3 -6 -6z"/>
<path d="M5578 2573 c7 -3 16 -2 19 1 4 3 -2 6 -13 5 -11 0 -14 -3 -6 -6z"/>
<path d="M5488 2553 c6 -2 18 -2 25 0 6 3 1 5 -13 5 -14 0 -19 -2 -12 -5z"/>
<path d="M5383 2533 c9 -2 23 -2 30 0 6 3 -1 5 -18 5 -16 0 -22 -2 -12 -5z"/>
<path d="M5248 2513 c12 -2 30 -2 40 0 9 3 -1 5 -23 4 -22 0 -30 -2 -17 -4z"/>
<path d="M5168 2503 c7 -3 16 -2 19 1 4 3 -2 6 -13 5 -11 0 -14 -3 -6 -6z"/>
<path d="M5027 2493 c18 -2 50 -2 70 0 21 2 7 4 -32 4 -38 0 -55 -2 -38 -4z"/>
<path d="M2710 2486 c0 -2 8 -10 18 -17 15 -13 16 -12 3 4 -13 16 -21 21 -21 13z"/>
<path d="M4548 2483 c12 -2 32 -2 45 0 12 2 2 4 -23 4 -25 0 -35 -2 -22 -4z"/>
<path d="M4698 2483 c29 -2 74 -2 100 0 26 2 2 3 -53 3 -55 0 -76 -1 -47 -3z"/>
<path d="M3165 2030 c231 -231 422 -420 425 -420 3 0 -184 189 -415 420 -231 231 -422 420 -425 420 -3 0 184 -189 415 -420z"/>
<path d="M3610 1587 c0 -2 15 -16 33 -33 l32 -29 -29 33 c-28 30 -36 37 -36 29z"/>
<path d="M5488 143 c7 -3 16 -2 19 1 4 3 -2 6 -13 5 -11 0 -14 -3 -6 -6z"/>
<path d="M5338 133 c7 -3 16 -2 19 1 4 3 -2 6 -13 5 -11 0 -14 -3 -6 -6z"/>
</g>
</g>
  <g id="id12:id12" transform="matrix(1.25,0,0,1.25,0.0,0.0)"><g transform="translate(0.000000,409.600000) scale(0.040000,-0.040000)" fill="#018fc8" stroke="none">
<path d="M0 5120 l0 -5120 5120 0 5120 0 0 5120 0 5120 -5120 0 -5120 0 0 -5120z m5400 5000 c1115 -65 2138 -479 2990 -1208 110 -95 378 -361 489 -487 649 -735 1068 -1648 1200 -2615 37 -266 44 -383 44 -690 0 -307 -7 -424 -44 -690 -121 -885 -476 -1713 -1042 -2426 -222 -281 -517 -575 -811 -809 -703 -561 -1561 -925 -2451 -1040 -256 -33 -353 -38 -655 -38 -326 0 -490 11 -760 53 -693 107 -1343 353 -1935 731 -105 67 -288 195 -341 238 -17 14 -60 48 -95 76 -245 191 -583 532 -800 805 -881 1112 -1246 2555 -1003 3960 153 886 540 1703 1143 2410 151 178 482 496 660 635 35 28 78 62 95 76 98 80 391 275 551 366 847 483 1807 710 2765 653z"/>
<path d="M6960 6816 c0 -2 7 -7 16 -10 8 -3 12 -2 9 4 -6 10 -25 14 -25 6z"/>
<path d="M7085 6700 c38 -38 72 -70 74 -70 3 0 -26 32 -64 70 -38 39 -72 70 -74 70 -3 0 26 -31 64 -70z"/>
<path d="M7210 6577 c0 -1 35 -36 78 -77 l77 -75 -75 78 c-69 71 -80 82 -80 74z"/>
<path d="M7430 6355 c13 -14 26 -25 28 -25 3 0 -5 11 -18 25 -13 14 -26 25 -28 25 -3 0 5 -11 18 -25z"/>
<path d="M7510 6276 c0 -2 8 -10 18 -17 15 -13 16 -12 3 4 -13 16 -21 21 -21 13z"/>
<path d="M7570 6215 c13 -14 26 -25 28 -25 3 0 -5 11 -18 25 -13 14 -26 25 -28 25 -3 0 5 -11 18 -25z"/>
<path d="M7610 6176 c0 -2 8 -10 18 -17 15 -13 16 -12 3 4 -13 16 -21 21 -21 13z"/>
<path d="M7522 5460 c0 -14 2 -19 5 -12 2 6 2 18 0 25 -3 6 -5 1 -5 -13z"/>
<path d="M8440 5337 c0 -2 15 -16 33 -33 l32 -29 -29 33 c-28 30 -36 37 -36 29z"/>
<path d="M8740 5038 c118 -119 211 -221 206 -225 -4 -4 -11 -1 -16 7 -7 11 -10 11 -10 2 0 -12 -84 -102 -95 -102 -3 0 -5 18 -5 40 0 22 -2 40 -5 40 -3 0 -46 -40 -95 -90 -49 -49 -92 -90 -95 -90 -3 0 -5 18 -5 40 0 22 -3 40 -6 40 -3 0 -27 -22 -54 -50 -27 -27 -51 -50 -54 -50 -3 0 -6 18 -6 40 0 22 -2 40 -5 40 -3 0 -59 -54 -125 -120 -66 -66 -122 -120 -125 -120 -3 0 -5 14 -5 30 0 17 -2 30 -5 30 -3 0 -55 -49 -115 -110 -60 -60 -112 -110 -115 -110 -3 0 -5 18 -5 40 0 22 -2 40 -5 40 -3 0 -59 -54 -125 -120 -66 -66 -122 -120 -125 -120 -3 0 -5 18 -5 40 0 22 -2 40 -5 40 -3 0 -55 -49 -115 -110 -60 -60 -112 -110 -115 -110 -3 0 -5 18 -5 40 0 22 -3 40 -6 40 -3 0 -19 -13 -34 -30 -15 -16 -31 -30 -34 -30 -3 0 -6 14 -6 30 0 35 -10 38 -30 10 -18 -25 -25 -25 -37 2 -8 19 -10 20 -16 4 -4 -10 -3 -15 3 -11 6 3 10 -5 10 -19 0 -14 -4 -26 -10 -26 -5 0 -10 -9 -10 -20 0 -22 -16 -27 -22 -8 -3 7 -7 5 -11 -6 -4 -10 -3 -15 3 -11 6 3 10 -3 10 -14 0 -23 -16 -29 -22 -9 -3 7 -7 5 -11 -6 -4 -10 -3 -15 3 -11 6 3 10 -3 10 -14 0 -23 -16 -29 -22 -9 -3 7 -7 5 -11 -6 -4 -10 -3 -15 3 -11 6 3 10 -3 10 -14 0 -23 -16 -29 -22 -9 -3 7 -7 5 -11 -6 -4 -10 -3 -15 3 -11 6 3 10 -1 10 -10 0 -11 -5 -15 -16 -11 -12 4 -14 1 -9 -14 4 -14 2 -20 -9 -20 -8 0 -18 -5 -22 -12 -4 -7 -3 -8 4 -4 7 4 12 1 12 -9 0 -11 -5 -15 -16 -11 -12 4 -14 1 -9 -13 3 -11 1 -22 -5 -26 -5 -3 -10 0 -10 7 0 10 -3 9 -10 -2 -6 -9 -5 -17 3 -22 8 -5 7 -8 -5 -8 -9 0 -20 -5 -24 -12 -5 -7 -3 -8 6 -3 8 5 11 3 8 -6 -3 -8 -10 -14 -16 -14 -5 0 -14 -3 -18 -7 -4 -5 -2 -8 5 -8 7 0 9 -5 6 -10 -4 -6 -10 -8 -15 -5 -5 3 -12 0 -16 -6 -5 -8 -3 -9 6 -4 8 5 11 3 8 -6 -3 -8 -11 -14 -19 -14 -8 -1 -13 -6 -11 -13 1 -7 -2 -12 -8 -12 -6 0 -9 -5 -8 -12 2 -7 -3 -12 -9 -13 -7 0 -13 -3 -13 -7 0 -4 -12 -19 -25 -34 -14 -15 -22 -31 -19 -36 3 -4 0 -7 -6 -6 -7 2 -17 -5 -23 -15 -7 -10 -35 -44 -64 -75 -28 -31 -49 -60 -47 -64 3 -5 0 -7 -8 -6 -7 2 -12 -3 -10 -10 1 -6 -4 -11 -10 -10 -7 2 -12 -3 -10 -10 1 -6 -4 -11 -10 -10 -7 2 -12 -3 -10 -10 1 -6 -4 -11 -10 -10 -7 2 -12 -3 -10 -10 1 -8 -1 -11 -6 -8 -5 3 -40 -25 -78 -61 -38 -36 -70 -64 -71 -62 -1 2 -17 -9 -35 -26 -19 -16 -38 -32 -44 -35 -5 -3 -8 -9 -6 -13 1 -5 -2 -6 -6 -3 -5 3 -21 -5 -35 -18 -14 -13 -28 -22 -30 -20 -2 2 -16 -7 -30 -20 -14 -13 -28 -22 -30 -20 -2 2 -16 -7 -30 -20 -15 -14 -27 -23 -27 -20 0 3 -16 -7 -35 -22 -19 -14 -35 -22 -35 -18 0 5 -7 1 -15 -10 -7 -10 -19 -15 -24 -11 -6 3 -14 -1 -17 -9 -3 -9 -10 -14 -14 -11 -5 3 -16 -2 -24 -11 -9 -8 -16 -12 -16 -8 0 3 -7 0 -16 -7 -9 -7 -23 -14 -32 -15 -8 -2 -18 -8 -22 -14 -4 -6 -12 -10 -18 -8 -6 2 -18 -6 -26 -17 -11 -14 -15 -16 -16 -6 0 11 -5 10 -20 -4 -11 -10 -23 -15 -27 -12 -3 4 -15 0 -25 -10 -10 -9 -21 -13 -25 -10 -4 4 -17 -3 -30 -15 -15 -14 -23 -17 -23 -8 0 9 -9 5 -26 -10 -19 -19 -27 -21 -33 -12 -6 10 -11 9 -21 -3 -7 -9 -20 -13 -27 -10 -8 3 -26 -4 -41 -15 -16 -13 -28 -17 -32 -10 -4 7 -16 3 -33 -10 -14 -11 -28 -16 -31 -11 -8 13 -43 2 -50 -15 -6 -16 -36 -19 -36 -4 0 11 -30 1 -48 -17 -16 -15 -52 -18 -52 -3 0 11 -30 1 -48 -17 -15 -14 -62 -18 -62 -4 0 4 -11 6 -25 4 -13 -3 -23 -10 -22 -17 1 -7 -18 -12 -51 -14 -41 -2 -52 0 -46 9 5 9 2 10 -10 6 -10 -4 -30 -8 -44 -8 -17 -1 -21 -3 -9 -6 9 -2 15 -9 12 -14 -4 -5 -63 -10 -133 -10 -70 -1 -115 -4 -100 -6 25 -4 16 -15 -133 -164 -87 -87 -161 -159 -164 -159 -3 0 -5 18 -5 40 0 22 -2 40 -5 40 -3 0 -68 -63 -145 -140 -77 -77 -142 -140 -145 -140 -3 0 -5 18 -5 40 0 22 -2 40 -5 40 -10 0 -545 -540 -545 -550 0 -5 -3 -10 -7 -10 -4 0 -98 89 -209 197 -110 109 -20 19 200 -200 349 -346 664 -649 539 -516 -24 25 -43 49 -43 53 0 9 56 66 65 66 3 0 5 -18 5 -40 0 -22 2 -40 5 -40 3 0 154 149 335 330 181 182 332 330 335 330 3 0 5 -13 5 -30 0 -16 2 -30 5 -30 3 0 50 45 105 100 55 55 102 100 105 100 3 0 5 -18 5 -40 0 -22 2 -40 5 -40 3 0 64 59 135 130 71 72 132 130 135 130 3 0 5 -18 5 -40 0 -22 2 -40 5 -40 3 0 55 50 115 110 60 61 112 110 115 110 3 0 5 -18 5 -40 0 -22 2 -40 5 -40 3 0 59 54 125 120 66 66 122 120 125 120 3 0 5 -13 5 -30 0 -16 2 -30 5 -30 3 0 50 45 105 100 55 55 102 100 105 100 3 0 5 -18 5 -40 0 -22 2 -40 5 -40 3 0 46 40 95 90 49 49 92 90 95 90 3 0 5 -18 5 -40 0 -22 2 -40 5 -40 3 0 46 40 95 90 49 49 92 90 95 90 3 0 5 -18 5 -40 0 -22 3 -40 6 -40 3 0 27 23 54 50 27 28 51 50 54 50 3 0 6 -13 6 -30 0 -16 2 -30 5 -30 3 0 59 54 125 120 66 66 122 120 125 120 3 0 5 -18 5 -40 0 -22 2 -40 5 -40 3 0 50 45 105 100 55 55 102 100 105 100 3 0 5 -18 5 -40 0 -22 2 -40 5 -40 3 0 46 41 95 90 49 50 92 90 95 90 3 0 5 -18 5 -40 0 -22 3 -40 6 -40 3 0 19 14 34 30 35 37 40 37 40 0 0 -16 2 -30 5 -30 3 0 55 50 115 110 60 61 112 110 115 110 3 0 5 -27 5 -60 0 -33 2 -60 5 -60 3 0 59 54 125 120 66 66 122 120 125 120 3 0 5 -18 5 -40 0 -22 2 -40 5 -40 3 0 55 50 115 110 60 61 112 110 115 110 3 0 5 -18 5 -40 0 -22 2 -40 5 -40 3 0 41 36 85 80 44 44 82 80 85 80 3 0 5 -18 5 -40 0 -22 2 -40 5 -40 3 0 46 41 95 90 49 50 92 90 95 90 3 0 5 -13 5 -30 0 -16 2 -30 5 -30 3 0 46 41 95 90 49 50 92 90 95 90 3 0 5 -40 5 -90 0 -49 2 -90 5 -90 3 0 46 41 95 90 49 50 92 90 95 90 3 0 5 -18 5 -40 0 -22 2 -40 5 -40 3 0 50 45 105 100 55 55 102 100 105 100 3 0 5 -13 5 -30 0 -16 2 -30 5 -30 3 0 59 54 125 120 66 66 122 120 125 120 3 0 5 -18 5 -40 0 -22 2 -40 5 -40 3 0 42 36 86 81 l80 81 -78 82 c-43 45 -301 305 -573 577 -272 272 -398 397 -280 277z m290 -292 c0 -3 -4 -8 -10 -11 -5 -3 -10 -1 -10 4 0 6 5 11 10 11 6 0 10 -2 10 -4z m-5234 -3307 c19 -22 19 -22 -3 -8 -13 8 -23 17 -23 21 0 12 6 9 26 -13z"/>
<path d="M7544 5105 c0 -82 2 -115 3 -72 2 43 2 110 0 150 -1 40 -3 5 -3 -78z"/>
<path d="M7531 4854 c0 -11 3 -14 6 -6 3 7 2 16 -1 19 -3 4 -6 -2 -5 -13z"/>
<path d="M7523 4755 c0 -22 2 -30 4 -17 2 12 2 30 0 40 -3 9 -5 -1 -4 -23z"/>
<path d="M7502 4615 c0 -16 2 -22 5 -12 2 9 2 23 0 30 -3 6 -5 -1 -5 -18z"/>
<path d="M7482 4510 c0 -14 2 -19 5 -12 2 6 2 18 0 25 -3 6 -5 1 -5 -13z"/>
<path d="M7458 4417 c-3 -19 -2 -25 4 -19 6 6 8 18 6 28 -3 14 -5 12 -10 -9z"/>
<path d="M7441 4344 c0 -11 3 -14 6 -6 3 7 2 16 -1 19 -3 4 -6 -2 -5 -13z"/>
<path d="M7417 4271 c-4 -17 -3 -21 5 -13 5 5 8 16 6 23 -3 8 -7 3 -11 -10z"/>
<path d="M7397 4211 c-4 -17 -3 -21 5 -13 5 5 8 16 6 23 -3 8 -7 3 -11 -10z"/>
<path d="M7412 4160 c0 -14 2 -19 5 -12 2 6 2 18 0 25 -3 6 -5 1 -5 -13z"/>
<path d="M7387 4135 c3 -22 7 -42 9 -44 8 -9 2 45 -6 64 -7 14 -8 8 -3 -20z"/>
<path d="M7356 4093 c-6 -14 -5 -15 5 -6 7 7 10 15 7 18 -3 3 -9 -2 -12 -12z"/>
<path d="M7371 4064 c0 -11 3 -14 6 -6 3 7 2 16 -1 19 -3 4 -6 -2 -5 -13z"/>
<path d="M4288 3823 c6 -2 18 -2 25 0 6 3 1 5 -13 5 -14 0 -19 -2 -12 -5z"/>
<path d="M4473 3823 c65 -2 168 -2 230 0 62 1 9 3 -118 3 -126 0 -177 -2 -112 -3z"/>
<path d="M9931 3814 c0 -11 3 -14 6 -6 3 7 2 16 -1 19 -3 4 -6 -2 -5 -13z"/>
<path d="M3598 2483 c6 -2 18 -2 25 0 6 3 1 5 -13 5 -14 0 -19 -2 -12 -5z"/>
<path d="M3898 2483 c116 -2 308 -2 425 0 116 1 21 2 -213 2 -234 0 -329 -1 -212 -2z"/>
<path d="M4618 2483 c6 -2 18 -2 25 0 6 3 1 5 -13 5 -14 0 -19 -2 -12 -5z"/>
<path d="M4868 2483 c18 -2 45 -2 60 0 15 2 0 4 -33 4 -33 0 -45 -2 -27 -4z"/>
</g>
</g>
  <g id="id13:id13" transform="matrix(1.25,0,0,1.25,0.0,0.0)"><g transform="translate(0.000000,409.600000) scale(0.040000,-0.040000)" fill="#0589bd" stroke="none">
<path d="M0 5120 l0 -5120 5120 0 5120 0 0 5120 0 5120 -5120 0 -5120 0 0 -5120z m5400 5000 c1115 -65 2138 -479 2990 -1208 110 -95 378 -361 489 -487 649 -735 1068 -1648 1200 -2615 37 -266 44 -383 44 -690 0 -307 -7 -424 -44 -690 -121 -885 -476 -1713 -1042 -2426 -222 -281 -517 -575 -811 -809 -703 -561 -1561 -925 -2451 -1040 -256 -33 -353 -38 -655 -38 -326 0 -490 11 -760 53 -693 107 -1343 353 -1935 731 -105 67 -288 195 -341 238 -17 14 -60 48 -95 76 -245 191 -583 532 -800 805 -881 1112 -1246 2555 -1003 3960 153 886 540 1703 1143 2410 151 178 482 496 660 635 35 28 78 62 95 76 98 80 391 275 551 366 847 483 1807 710 2765 653z"/>
<path d="M6996 6775 c14 -19 29 -35 31 -35 3 0 0 7 -7 15 -7 8 -9 15 -5 15 5 0 -2 9 -15 20 -33 29 -35 25 -4 -15z"/>
<path d="M7080 6656 c0 -2 8 -10 18 -17 15 -13 16 -12 3 4 -13 16 -21 21 -21 13z"/>
<path d="M7200 6470 c6 -11 13 -20 16 -20 2 0 0 9 -6 20 -6 11 -13 20 -16 20 -2 0 0 -9 6 -20z"/>
<path d="M4553 6413 c59 -2 154 -2 210 0 56 1 8 3 -108 3 -115 0 -161 -2 -102 -3z"/>
<path d="M7236 6407 c3 -10 9 -15 12 -12 3 3 0 11 -7 18 -10 9 -11 8 -5 -6z"/>
<path d="M4918 6403 c7 -3 16 -2 19 1 4 3 -2 6 -13 5 -11 0 -14 -3 -6 -6z"/>
<path d="M5008 6393 c7 -3 16 -2 19 1 4 3 -2 6 -13 5 -11 0 -14 -3 -6 -6z"/>
<path d="M7256 6367 c3 -10 9 -15 12 -12 3 3 0 11 -7 18 -10 9 -11 8 -5 -6z"/>
<path d="M7276 6327 c3 -10 9 -15 12 -12 3 3 0 11 -7 18 -10 9 -11 8 -5 -6z"/>
<path d="M7450 6327 c0 -2 15 -16 33 -33 l32 -29 -29 33 c-28 30 -36 37 -36 29z"/>
<path d="M7296 6287 c3 -10 9 -15 12 -12 3 3 0 11 -7 18 -10 9 -11 8 -5 -6z"/>
<path d="M7819 5959 c170 -172 291 -301 287 -308 -5 -7 -1 -9 8 -5 9 3 16 4 16 0 0 -7 -117 -126 -125 -126 -3 0 -5 18 -5 40 0 22 -2 40 -5 40 -3 0 -59 -54 -125 -120 -66 -66 -122 -120 -125 -120 -3 0 -5 18 -5 40 0 22 -2 40 -5 40 -3 0 -37 -32 -76 -71 -43 -44 -71 -65 -74 -57 -2 7 -6 36 -8 63 -2 28 -5 -53 -6 -180 -2 -126 -7 -241 -11 -255 l-8 -25 -3 25 c-1 14 -5 -6 -8 -45 -4 -38 -3 -71 1 -73 12 -5 10 -24 -12 -91 -10 -34 -17 -67 -14 -74 2 -7 -2 -35 -10 -61 -8 -27 -13 -53 -10 -57 2 -5 -2 -25 -11 -45 -8 -20 -13 -40 -10 -44 3 -5 0 -21 -7 -37 -6 -15 -12 -33 -13 -38 -1 -17 -26 -98 -36 -117 -5 -10 -9 -27 -9 -37 0 -11 -5 -23 -11 -26 -6 -4 -9 -26 -6 -54 2 -25 2 -36 0 -23 -6 30 -23 28 -23 -2 0 -14 -4 -28 -10 -31 -12 -8 -13 -35 0 -55 7 -12 12 -11 28 8 26 29 32 28 32 -8 0 -16 3 -30 6 -30 3 0 19 14 34 30 15 17 31 30 34 30 3 0 6 -18 6 -40 0 -22 2 -40 5 -40 3 0 55 50 115 110 60 61 112 110 115 110 3 0 5 -18 5 -40 0 -22 2 -40 5 -40 3 0 59 54 125 120 66 66 122 120 125 120 3 0 5 -18 5 -40 0 -22 2 -40 5 -40 3 0 55 49 115 110 60 61 112 110 115 110 3 0 5 -13 5 -30 0 -16 2 -30 5 -30 3 0 59 54 125 120 66 66 122 120 125 120 3 0 5 -18 5 -40 0 -22 3 -40 6 -40 3 0 27 23 54 50 27 28 51 50 54 50 3 0 6 -18 6 -40 0 -22 2 -40 5 -40 3 0 46 41 95 90 49 50 92 90 95 90 3 0 5 -18 5 -40 0 -22 2 -40 5 -40 11 0 95 90 95 102 0 9 3 9 10 -2 5 -8 12 -11 16 -7 8 8 -156 176 -931 952 -269 270 -358 357 -196 194z m344 -352 c38 -40 60 -67 54 -67 -7 0 -87 77 -87 84 0 12 11 6 33 -17z m100 -111 c-3 -4 -9 -2 -14 5 -13 22 -11 31 5 17 8 -7 12 -17 9 -22z m-846 -1348 c-3 -7 -5 -2 -5 12 0 14 2 19 5 13 2 -7 2 -19 0 -25z m-40 -90 c-3 -8 -6 -5 -6 6 -1 11 2 17 5 13 3 -3 4 -12 1 -19z"/>
<path d="M7336 6197 c3 -10 9 -15 12 -12 3 3 0 11 -7 18 -10 9 -11 8 -5 -6z"/>
<path d="M7357 6139 c4 -13 8 -18 11 -10 2 7 -1 18 -6 23 -8 8 -9 4 -5 -13z"/>
<path d="M5645 6100 c10 -11 20 -20 23 -20 3 0 -3 9 -13 20 -10 11 -20 20 -23 20 -3 0 3 -9 13 -20z"/>
<path d="M7377 6089 c4 -13 8 -18 11 -10 2 7 -1 18 -6 23 -8 8 -9 4 -5 -13z"/>
<path d="M5730 6015 c13 -14 26 -25 28 -25 3 0 -5 11 -18 25 -13 14 -26 25 -28 25 -3 0 5 -11 18 -25z"/>
<path d="M7401 6024 c0 -11 3 -14 6 -6 3 7 2 16 -1 19 -3 4 -6 -2 -5 -13z"/>
<path d="M7421 5964 c0 -11 3 -14 6 -6 3 7 2 16 -1 19 -3 4 -6 -2 -5 -13z"/>
<path d="M7436 5915 c8 -37 14 -45 14 -19 0 10 -5 26 -10 34 -8 11 -9 7 -4 -15z"/>
<path d="M7458 5833 c5 -21 7 -23 10 -9 2 10 0 22 -6 28 -6 6 -7 0 -4 -19z"/>
<path d="M7479 5748 c4 -28 6 -29 9 -9 2 13 0 27 -5 32 -6 6 -7 -3 -4 -23z"/>
<path d="M5910 5741 c0 -6 4 -13 10 -16 6 -3 7 1 4 9 -7 18 -14 21 -14 7z"/>
<path d="M7502 5640 c0 -19 2 -27 5 -17 2 9 2 25 0 35 -3 9 -5 1 -5 -18z"/>
<path d="M7532 5615 c0 -16 2 -22 5 -12 2 9 2 23 0 30 -3 6 -5 -1 -5 -18z"/>
<path d="M7517 5534 c3 -27 7 -51 9 -53 8 -9 3 75 -5 88 -5 8 -7 -5 -4 -35z"/>
<path d="M5992 5520 c0 -14 2 -19 5 -12 2 6 2 18 0 25 -3 6 -5 1 -5 -13z"/>
<path d="M7552 5475 c0 -47 2 -62 7 -45 5 14 5 45 1 70 -7 41 -8 39 -8 -25z"/>
<path d="M6012 5435 c0 -16 2 -22 5 -12 2 9 2 23 0 30 -3 6 -5 -1 -5 -18z"/>
<path d="M7537 5343 c6 -105 11 -115 12 -23 0 41 -3 81 -8 88 -4 8 -6 -21 -4 -65z"/>
<path d="M6033 5295 c0 -33 2 -45 4 -27 2 18 2 45 0 60 -2 15 -4 0 -4 -33z"/>
<path d="M6043 5125 c0 -44 2 -61 4 -37 2 23 2 59 0 80 -2 20 -4 1 -4 -43z"/>
<path d="M4163 5055 c0 -22 2 -30 4 -17 2 12 2 30 0 40 -3 9 -5 -1 -4 -23z"/>
<path d="M6033 4975 c0 -33 2 -45 4 -27 2 18 2 45 0 60 -2 15 -4 0 -4 -33z"/>
<path d="M4165 4425 c0 -324 1 -456 2 -292 2 164 2 430 0 590 -1 161 -2 27 -2 -298z"/>
<path d="M6016 4865 c-3 -9 -5 -29 -5 -43 1 -20 3 -17 9 13 8 43 7 57 -4 30z"/>
<path d="M5997 4773 c-4 -3 -7 -18 -6 -32 1 -26 1 -25 10 3 9 31 7 41 -4 29z"/>
<path d="M9010 4739 c0 -5 5 -7 10 -4 6 3 10 8 10 11 0 2 -4 4 -10 4 -5 0 -10 -5 -10 -11z"/>
<path d="M5961 4724 c0 -11 3 -14 6 -6 3 7 2 16 -1 19 -3 4 -6 -2 -5 -13z"/>
<path d="M5973 4685 c-3 -9 -3 -18 -1 -21 3 -3 8 4 11 16 6 23 -1 27 -10 5z"/>
<path d="M5941 4654 c0 -11 3 -14 6 -6 3 7 2 16 -1 19 -3 4 -6 -2 -5 -13z"/>
<path d="M5953 4625 c-3 -9 -3 -18 -1 -21 3 -3 8 4 11 16 6 23 -1 27 -10 5z"/>
<path d="M5922 4605 c0 -11 3 -29 8 -40 11 -25 11 1 0 35 -6 20 -8 21 -8 5z"/>
<path d="M5902 4555 c-1 -11 2 -26 7 -33 7 -11 9 -10 14 3 4 9 3 13 -2 10 -5 -3 -12 5 -14 17 -4 20 -4 20 -5 3z"/>
<path d="M5881 4510 c0 -8 4 -22 9 -30 12 -18 12 -2 0 25 -6 13 -9 15 -9 5z"/>
<path d="M5861 4470 c0 -8 3 -21 8 -28 7 -11 9 -10 14 3 4 9 3 13 -2 10 -5 -3 -12 3 -14 12 -3 13 -5 14 -6 3z"/>
<path d="M5844 4425 c3 -20 -2 -39 -14 -55 l-20 -25 0 23 c0 12 5 22 10 22 6 0 10 5 10 10 0 17 -14 11 -28 -11 -10 -16 -10 -24 -1 -35 9 -11 9 -17 -1 -29 -7 -8 -10 -15 -6 -15 11 0 75 104 67 110 -4 3 -11 12 -15 20 -3 8 -4 1 -2 -15z"/>
<path d="M5764 4332 c-9 -14 -9 -22 1 -36 8 -11 15 -13 20 -7 3 6 1 11 -4 11 -6 0 -11 7 -11 15 0 8 5 15 10 15 6 0 10 5 10 10 0 16 -14 12 -26 -8z"/>
<path d="M5687 4238 c-70 -75 -68 -91 2 -19 28 29 55 50 60 47 5 -3 7 3 4 14 -3 11 -6 20 -7 20 0 0 -27 -28 -59 -62z"/>
<path d="M5683 4188 c-34 -34 -66 -58 -70 -54 -4 5 -3 11 4 13 10 4 8 58 -3 71 -1 2 -44 -38 -96 -89 l-93 -93 -3 42 c-2 23 -5 42 -8 42 -2 0 -43 -38 -89 -85 -47 -47 -90 -85 -95 -85 -6 0 -10 11 -10 25 0 32 -6 31 -39 -2 -50 -52 -71 -66 -109 -73 l-37 -8 48 -1 c29 -1 46 -5 42 -11 -7 -12 2 -12 30 0 19 8 19 9 -2 9 -38 1 -26 21 13 21 19 0 33 -4 30 -9 -3 -4 7 -6 21 -3 l27 5 -25 10 -24 11 30 4 c16 2 31 -1 33 -7 2 -5 10 -7 18 -4 12 4 12 8 -3 19 -17 12 -16 13 10 14 15 0 27 -4 27 -10 0 -5 7 -7 15 -4 14 6 13 8 -2 20 -16 12 -16 13 10 14 16 0 26 -4 22 -10 -4 -6 1 -7 11 -3 11 4 13 8 6 11 -20 6 -14 22 9 22 11 0 17 -4 14 -10 -3 -6 1 -7 10 -4 12 5 13 9 4 20 -9 11 -7 14 10 14 14 0 20 -4 15 -12 -4 -7 -3 -8 4 -4 6 4 8 14 5 23 -5 13 -1 15 23 10 16 -3 23 -4 17 -1 -18 8 -16 24 2 24 8 0 15 -5 15 -11 0 -5 5 -7 10 -4 8 5 7 11 -1 21 -9 11 -8 14 5 14 9 0 16 5 16 11 0 6 9 9 19 6 14 -3 18 -1 14 9 -3 8 0 14 6 14 6 0 11 -5 11 -11 0 -5 4 -8 10 -4 5 3 6 13 3 21 -5 13 -1 15 13 10 15 -4 35 10 84 59 35 36 62 65 60 65 -3 0 -33 -28 -67 -62z"/>
<path d="M7326 4005 c-10 -22 -35 -74 -55 -115 -20 -41 -37 -78 -39 -82 -2 -4 1 -8 7 -8 6 0 11 7 11 15 0 8 5 15 10 15 6 0 10 9 10 20 0 11 5 20 10 20 6 0 10 9 10 20 0 11 5 20 10 20 6 0 10 9 10 20 0 11 5 20 10 20 6 0 10 9 10 19 0 11 5 21 11 23 6 2 9 15 7 28 -3 23 -5 22 -22 -15z"/>
<path d="M4990 3880 c-24 -8 -23 -8 8 -9 20 -1 31 3 27 9 -3 6 -7 10 -8 9 -1 -1 -13 -5 -27 -9z"/>
<path d="M5035 3860 c-4 -7 3 -8 22 -4 38 9 42 14 10 14 -14 0 -29 -5 -32 -10z"/>
<path d="M4703 3853 c9 -2 23 -2 30 0 6 3 -1 5 -18 5 -16 0 -22 -2 -12 -5z"/>
<path d="M4768 3853 c12 -2 32 -2 45 0 12 2 2 4 -23 4 -25 0 -35 -2 -22 -4z"/>
<path d="M4880 3840 c-15 -5 1 -6 40 -3 36 3 67 7 69 9 8 7 -84 2 -109 -6z"/>
<path d="M4218 3823 c12 -2 32 -2 45 0 12 2 2 4 -23 4 -25 0 -35 -2 -22 -4z"/>
<path d="M4328 3823 c6 -2 18 -2 25 0 6 3 1 5 -13 5 -14 0 -19 -2 -12 -5z"/>
<path d="M7210 3780 c0 -5 5 -10 10 -10 6 0 10 5 10 10 0 6 -4 10 -10 10 -5 0 -10 -4 -10 -10z"/>
<path d="M7196 3751 c-4 -7 -5 -15 -2 -18 9 -9 19 4 14 18 -4 11 -6 11 -12 0z"/>
<path d="M7170 3704 c0 -8 5 -12 10 -9 6 3 10 10 10 16 0 5 -4 9 -10 9 -5 0 -10 -7 -10 -16z"/>
<path d="M7137 3653 c-4 -3 -7 -11 -7 -17 0 -6 5 -5 12 2 6 6 9 14 7 17 -3 3 -9 2 -12 -2z"/>
<path d="M7102 3599 c-19 -30 -8 -34 12 -4 9 14 13 25 9 25 -5 0 -14 -9 -21 -21z"/>
<path d="M7050 3529 c0 -5 5 -7 10 -4 6 3 10 8 10 11 0 2 -4 4 -10 4 -5 0 -10 -5 -10 -11z"/>
<path d="M6040 2719 c0 -5 5 -7 10 -4 6 3 10 8 10 11 0 2 -4 4 -10 4 -5 0 -10 -5 -10 -11z"/>
<path d="M5890 2659 c0 -5 5 -7 10 -4 6 3 10 8 10 11 0 2 -4 4 -10 4 -5 0 -10 -5 -10 -11z"/>
<path d="M5830 2640 c0 -5 4 -10 9 -10 6 0 13 5 16 10 3 6 -1 10 -9 10 -9 0 -16 -4 -16 -10z"/>
<path d="M5710 2600 c0 -5 7 -7 15 -4 8 4 15 8 15 10 0 2 -7 4 -15 4 -8 0 -15 -4 -15 -10z"/>
<path d="M5645 2580 c4 -6 11 -8 16 -5 14 9 11 15 -7 15 -8 0 -12 -5 -9 -10z"/>
<path d="M5560 2560 c0 -5 6 -10 14 -10 8 0 18 5 21 10 3 6 -3 10 -14 10 -12 0 -21 -4 -21 -10z"/>
<path d="M5460 2540 c0 -13 30 -13 50 0 11 7 7 10 -17 10 -18 0 -33 -4 -33 -10z"/>
<path d="M5350 2520 c0 -13 40 -13 60 0 11 7 5 10 -22 10 -21 0 -38 -4 -38 -10z"/>
<path d="M5205 2500 c-4 -6 13 -10 44 -10 27 0 53 5 56 10 4 6 -13 10 -44 10 -27 0 -53 -4 -56 -10z"/>
<path d="M2730 2482 c0 -12 1023 -1022 1065 -1052 17 -12 17 -11 -2 11 -13 14 -23 28 -23 32 0 8 537 547 545 547 3 0 5 -18 5 -40 0 -22 2 -40 5 -40 3 0 68 63 145 140 77 77 142 140 145 140 3 0 5 -18 5 -40 0 -22 2 -40 5 -40 3 0 77 72 164 159 149 149 158 160 133 164 -15 2 30 5 100 6 70 0 129 4 131 9 3 4 -541 8 -1209 9 -668 1 -1214 -1 -1214 -5z m608 -12 c17 0 32 -4 32 -10 0 -6 -57 -11 -147 -12 -110 -2 -124 -3 -55 -5 50 -2 92 -6 92 -8 0 -9 -207 -212 -220 -217 -10 -3 -8 -10 9 -27 12 -12 20 -25 17 -28 -3 -3 -78 67 -168 157 l-163 161 285 -5 c157 -3 300 -6 318 -6z m122 -10 c0 -5 -10 -10 -22 -9 -22 0 -22 1 -3 9 11 5 21 9 23 9 1 1 2 -3 2 -9z m-359 -327 c13 -16 12 -17 -3 -4 -17 13 -22 21 -14 21 2 0 10 -8 17 -17z"/>
</g>
</g>
  <g id="id14:id14" transform="matrix(1.25,0,0,1.25,0.0,0.0)"><g transform="translate(0.000000,409.600000) scale(0.040000,-0.040000)" fill="#0280af" stroke="none">
<path d="M0 5120 l0 -5120 5120 0 5120 0 0 5120 0 5120 -5120 0 -5120 0 0 -5120z m5400 5000 c1115 -65 2138 -479 2990 -1208 110 -95 378 -361 489 -487 649 -735 1068 -1648 1200 -2615 37 -266 44 -383 44 -690 0 -307 -7 -424 -44 -690 -121 -885 -476 -1713 -1042 -2426 -222 -281 -517 -575 -811 -809 -703 -561 -1561 -925 -2451 -1040 -256 -33 -353 -38 -655 -38 -326 0 -490 11 -760 53 -693 107 -1343 353 -1935 731 -105 67 -288 195 -341 238 -17 14 -60 48 -95 76 -245 191 -583 532 -800 805 -881 1112 -1246 2555 -1003 3960 153 886 540 1703 1143 2410 151 178 482 496 660 635 35 28 78 62 95 76 98 80 391 275 551 366 847 483 1807 710 2765 653z"/>
<path d="M7025 6748 c10 -16 21 -28 26 -28 5 0 8 -3 7 -7 -2 -5 0 -8 3 -8 16 0 49 -40 44 -52 -2 -8 0 -11 5 -8 19 12 42 -24 36 -53 l-6 -27 16 25 c15 25 15 25 10 -13 -4 -33 -3 -36 10 -22 9 8 20 15 25 15 13 0 11 -17 -3 -24 -10 -5 -10 -7 0 -12 6 -3 12 -15 12 -25 0 -13 -4 -18 -12 -13 -7 4 -8 3 -4 -4 4 -6 14 -8 23 -5 13 5 15 2 9 -22 -6 -25 -5 -27 8 -16 14 12 16 10 16 -8 0 -14 -4 -20 -12 -15 -7 4 -8 3 -4 -4 4 -7 14 -12 22 -12 8 0 14 -7 14 -16 0 -9 -5 -12 -12 -8 -7 4 -8 3 -4 -4 4 -7 14 -12 22 -12 8 0 14 -7 14 -16 0 -9 -5 -12 -12 -8 -7 4 -8 3 -4 -4 4 -7 14 -12 22 -12 8 0 14 -7 14 -16 0 -9 -5 -12 -12 -8 -7 4 -8 3 -4 -4 4 -7 14 -12 23 -12 11 0 14 -6 9 -25 -5 -19 -3 -23 9 -19 10 4 15 0 15 -10 0 -9 -6 -16 -12 -16 -7 0 -2 -10 12 -21 19 -15 22 -22 11 -26 -11 -4 -8 -10 10 -24 18 -14 21 -21 11 -27 -10 -7 -10 -11 3 -22 9 -7 14 -19 11 -25 -2 -7 2 -23 11 -34 8 -12 12 -25 9 -28 -3 -4 1 -17 10 -31 8 -13 13 -26 10 -29 -3 -3 -1 -14 5 -25 6 -10 11 -29 13 -41 1 -12 8 -35 14 -50 7 -16 9 -33 6 -38 -3 -6 -1 -15 4 -22 5 -7 12 -30 15 -52 4 -22 11 -67 17 -100 24 -129 32 -229 38 -465 8 -296 21 -272 24 44 1 121 3 199 5 171 2 -27 6 -56 8 -63 3 -8 31 13 74 57 39 39 73 71 76 71 3 0 5 -18 5 -40 0 -22 2 -40 5 -40 3 0 59 54 125 120 66 66 122 120 125 120 3 0 5 -18 5 -40 0 -22 3 -40 6 -40 3 0 30 25 59 56 l54 56 46 -46 c47 -47 73 -63 39 -24 -49 56 -85 88 -94 83 -5 -3 -8 0 -5 7 2 7 -238 257 -546 568 -303 305 -543 543 -534 528z m241 -243 c24 -25 40 -45 35 -45 -10 0 -91 75 -91 84 0 13 12 4 56 -39z m271 -902 c-3 -10 -5 -4 -5 12 0 17 2 24 5 18 2 -7 2 -21 0 -30z m22 -173 c-5 -17 -7 -2 -7 45 0 64 1 66 8 25 4 -25 4 -56 -1 -70z"/>
<path d="M4263 6413 c37 -2 96 -2 130 0 34 2 4 3 -68 3 -71 0 -99 -1 -62 -3z"/>
<path d="M4968 6393 c6 -2 18 -2 25 0 6 3 1 5 -13 5 -14 0 -19 -2 -12 -5z"/>
<path d="M4165 5740 c0 -360 1 -508 2 -327 2 180 2 474 0 655 -1 180 -2 32 -2 -328z"/>
<path d="M5088 6373 c7 -3 16 -2 19 1 4 3 -2 6 -13 5 -11 0 -14 -3 -6 -6z"/>
<path d="M5228 6333 c7 -3 16 -2 19 1 4 3 -2 6 -13 5 -11 0 -14 -3 -6 -6z"/>
<path d="M5685 6060 c10 -11 20 -20 23 -20 3 0 -3 9 -13 20 -10 11 -20 20 -23 20 -3 0 3 -9 13 -20z"/>
<path d="M5750 5986 c0 -2 8 -10 18 -17 15 -13 16 -12 3 4 -13 16 -21 21 -21 13z"/>
<path d="M5821 5844 c0 -11 3 -14 6 -6 3 7 2 16 -1 19 -3 4 -6 -2 -5 -13z"/>
<path d="M5863 5797 c-7 -15 -8 -29 -2 -38 13 -21 11 -34 -10 -57 -25 -29 -31 -28 -31 8 0 17 -2 30 -5 30 -3 0 -73 -67 -155 -150 -82 -82 -152 -150 -155 -150 -3 0 -5 18 -5 40 0 22 -2 40 -5 40 -3 0 -59 -54 -125 -120 -66 -66 -122 -120 -125 -120 -3 0 -5 18 -5 40 0 22 -2 40 -5 40 -3 0 -140 -135 -305 -300 -165 -165 -302 -300 -305 -300 -3 0 -5 27 -5 60 0 33 -2 60 -5 60 -3 0 -68 -63 -145 -140 -77 -77 -142 -140 -145 -140 -3 0 -5 18 -5 40 0 22 -3 40 -6 40 -3 0 -27 -23 -54 -50 -27 -28 -52 -46 -55 -40 -3 5 -4 13 -2 18 3 4 1 36 -3 72 -4 39 -8 -93 -9 -330 -2 -217 -6 -418 -10 -447 -5 -34 -4 -54 3 -56 11 -4 500 -12 616 -10 102 1 230 15 236 24 3 5 23 9 44 9 21 0 42 5 45 10 3 6 19 10 35 10 16 0 32 5 35 10 4 6 -8 10 -29 10 -20 0 -36 -4 -36 -10 0 -5 -21 -9 -47 -9 l-48 1 37 8 c38 7 59 21 109 73 33 33 39 34 39 2 0 -14 4 -25 10 -25 5 0 48 38 95 85 46 47 87 85 89 85 3 0 6 -19 8 -42 l3 -42 93 92 c50 51 94 92 96 92 2 0 6 -15 9 -32 3 -25 -1 -37 -16 -51 -11 -9 -17 -20 -14 -24 4 -4 46 33 94 81 74 74 86 89 76 104 -8 14 -7 23 3 37 8 10 17 15 21 10 5 -4 2 -10 -4 -12 -14 -5 -18 -33 -5 -33 4 0 21 22 38 48 22 34 31 58 28 78 -2 16 -1 21 2 12 10 -32 26 -20 20 15 -4 21 -3 26 2 13 11 -25 24 -6 19 26 -2 13 -2 17 0 11 3 -7 9 -13 15 -13 6 0 8 17 4 43 -3 26 -2 33 2 17 11 -34 24 -10 19 32 -2 18 -2 25 0 16 7 -27 23 -22 23 6 0 14 5 28 10 31 6 3 10 17 10 30 0 13 5 27 10 30 6 3 10 21 10 39 0 17 4 36 9 41 14 16 25 108 36 315 7 116 5 140 -9 167 -17 34 -22 103 -7 103 4 0 6 11 3 25 -2 14 -8 23 -12 20 -9 -6 -20 19 -20 46 0 13 4 18 12 13 8 -5 9 -2 5 10 -4 10 -7 20 -7 22 0 2 -7 4 -15 4 -9 0 -15 10 -15 26 0 14 4 23 9 20 5 -4 7 4 3 16 -3 12 -7 17 -10 10 -7 -23 -22 -12 -22 19 0 17 4 28 10 24 6 -4 7 1 3 11 -4 11 -8 13 -11 6 -7 -22 -22 -13 -22 14 0 14 4 22 10 19 6 -4 7 1 3 11 -4 11 -8 13 -11 6 -7 -22 -22 -13 -22 14 0 16 4 23 12 18 7 -4 8 -3 4 4 -4 6 -13 9 -21 5 -10 -3 -15 2 -15 17 0 11 4 18 10 15 6 -3 7 1 4 10 -6 14 -8 14 -20 -2 -12 -16 -13 -16 -14 10 0 16 4 26 10 22 6 -3 7 1 4 9 -8 21 -9 20 -21 -7z m104 -1079 c-3 -8 -6 -5 -6 6 -1 11 2 17 5 13 3 -3 4 -12 1 -19z m-20 -70 c-3 -8 -6 -5 -6 6 -1 11 2 17 5 13 3 -3 4 -12 1 -19z m-117 -248 c0 -5 -4 -10 -10 -10 -5 0 -10 -10 -10 -22 0 -16 -3 -19 -11 -11 -8 8 -7 17 3 32 14 22 28 28 28 11z m-135 -175 c-31 -32 -58 -55 -61 -53 -2 3 22 32 53 66 32 33 59 57 61 52 2 -5 -22 -34 -53 -65z m-670 -345 c4 -6 -7 -10 -27 -9 -31 1 -32 1 -8 9 14 4 26 8 27 9 1 1 5 -3 8 -9z m-292 -27 c-7 -2 -21 -2 -30 0 -10 3 -4 5 12 5 17 0 24 -2 18 -5z m80 0 c-13 -2 -33 -2 -45 0 -13 2 -3 4 22 4 25 0 35 -2 23 -4z"/>
<path d="M8240 5523 c0 -15 18 -35 23 -27 3 5 -1 15 -9 22 -8 7 -14 9 -14 5z"/>
<path d="M7531 4778 c1 -37 2 -39 9 -18 12 36 12 60 0 60 -5 0 -10 -19 -9 -42z"/>
<path d="M7511 4644 c0 -11 3 -14 6 -6 3 7 2 16 -1 19 -3 4 -6 -2 -5 -13z"/>
<path d="M5560 4100 c0 -5 -7 -10 -15 -10 -8 0 -15 -4 -15 -10 0 -5 -7 -10 -16 -10 -8 0 -12 -4 -9 -10 9 -15 17 -12 48 14 28 24 34 36 17 36 -5 0 -10 -4 -10 -10z"/>
<path d="M5470 4040 c0 -5 -7 -10 -15 -10 -8 0 -15 -4 -15 -10 0 -5 -10 -10 -22 -10 -15 0 -19 -3 -12 -10 11 -11 64 8 64 23 0 4 7 7 15 7 8 0 15 5 15 10 0 6 -7 10 -15 10 -8 0 -15 -4 -15 -10z"/>
<path d="M5360 3980 c0 -5 -12 -10 -27 -10 -20 0 -24 -3 -16 -11 9 -9 21 -8 47 5 41 19 45 26 16 26 -11 0 -20 -4 -20 -10z"/>
<path d="M5265 3940 c3 -5 15 -10 26 -10 10 0 19 5 19 10 0 6 -12 10 -26 10 -14 0 -23 -4 -19 -10z"/>
<path d="M5205 3920 c3 -5 17 -10 31 -10 13 0 24 5 24 10 0 6 -14 10 -31 10 -17 0 -28 -4 -24 -10z"/>
<path d="M2898 2320 c90 -90 165 -160 168 -157 3 3 -5 16 -17 28 -17 17 -19 24 -9 27 13 5 220 208 220 217 0 2 -42 6 -92 8 -69 2 -55 3 55 5 90 1 147 6 147 12 0 6 -15 10 -32 10 -18 0 -161 3 -318 6 l-285 5 163 -161z"/>
<path d="M3435 2460 c-19 -8 -19 -9 3 -9 12 -1 22 4 22 9 0 6 -1 10 -2 9 -2 0 -12 -4 -23 -9z"/>
<path d="M3080 2146 c0 -2 8 -10 18 -17 15 -13 16 -12 3 4 -13 16 -21 21 -21 13z"/>
</g>
</g>
  <g id="id15:id15" transform="matrix(1.25,0,0,1.25,0.0,0.0)"><g transform="translate(0.000000,409.600000) scale(0.040000,-0.040000)" fill="#0277a2" stroke="none">
<path d="M0 5120 l0 -5120 5120 0 5120 0 0 5120 0 5120 -5120 0 -5120 0 0 -5120z m5400 5000 c1115 -65 2138 -479 2990 -1208 110 -95 378 -361 489 -487 649 -735 1068 -1648 1200 -2615 37 -266 44 -383 44 -690 0 -307 -7 -424 -44 -690 -121 -885 -476 -1713 -1042 -2426 -222 -281 -517 -575 -811 -809 -703 -561 -1561 -925 -2451 -1040 -256 -33 -353 -38 -655 -38 -326 0 -490 11 -760 53 -693 107 -1343 353 -1935 731 -105 67 -288 195 -341 238 -17 14 -60 48 -95 76 -245 191 -583 532 -800 805 -881 1112 -1246 2555 -1003 3960 153 886 540 1703 1143 2410 151 178 482 496 660 635 35 28 78 62 95 76 98 80 391 275 551 366 847 483 1807 710 2765 653z"/>
<path d="M7071 6690 c13 -19 27 -36 31 -38 4 -2 8 -10 8 -18 0 -8 5 -14 10 -14 6 0 10 -7 10 -15 0 -8 5 -15 10 -15 23 0 7 34 -41 83 -41 42 -47 45 -28 17z"/>
<path d="M7156 6592 c-4 -13 -5 -26 -2 -29 10 -11 18 4 14 29 l-4 23 -8 -23z"/>
<path d="M7182 6578 c4 -9 2 -19 -5 -21 -9 -3 -7 -13 6 -33 10 -16 21 -37 24 -46 7 -22 23 -24 23 -3 0 8 -4 15 -10 15 -5 0 -10 9 -10 20 0 27 5 26 46 -15 19 -19 39 -35 45 -35 6 0 -2 12 -18 28 -16 15 -46 45 -68 67 -21 22 -36 32 -33 23z m28 -38 c0 -5 -4 -10 -10 -10 -5 0 -10 5 -10 10 0 6 5 10 10 10 6 0 10 -4 10 -10z"/>
<path d="M7234 6449 c-3 -6 -1 -16 5 -22 8 -8 11 -5 11 11 0 24 -5 28 -16 11z"/>
<path d="M4164 6394 c3 -9 7 -583 7 -1277 1 -694 5 -1239 9 -1212 5 28 9 228 10 445 2 238 6 369 10 330 4 -36 6 -68 3 -72 -2 -5 -1 -13 2 -18 3 -6 28 12 55 40 27 27 51 50 54 50 3 0 6 -18 6 -40 0 -22 2 -40 5 -40 3 0 68 63 145 140 77 77 142 140 145 140 3 0 5 -27 5 -60 0 -33 2 -60 5 -60 3 0 140 135 305 300 165 165 302 300 305 300 3 0 5 -18 5 -40 0 -22 2 -40 5 -40 3 0 59 54 125 120 66 66 122 120 125 120 3 0 5 -18 5 -40 0 -22 2 -40 5 -40 3 0 73 68 155 150 82 83 152 150 155 150 3 0 5 -13 5 -30 0 -36 6 -37 31 -8 21 23 23 36 10 57 -6 9 -5 23 1 36 9 19 2 34 -42 99 -28 42 -81 108 -117 147 -62 66 -171 155 -203 167 -8 3 -17 8 -20 12 -3 4 -45 26 -95 50 -49 23 -98 46 -107 51 -10 5 -27 9 -37 9 -11 0 -22 4 -25 9 -3 5 -18 11 -33 14 -16 3 -48 10 -73 16 -143 33 -259 41 -603 41 -314 0 -349 -2 -343 -16z m1663 -556 c-3 -8 -6 -5 -6 6 -1 11 2 17 5 13 3 -3 4 -12 1 -19z"/>
<path d="M7250 6401 c0 -6 5 -13 10 -16 6 -3 10 1 10 9 0 9 -4 16 -10 16 -5 0 -10 -4 -10 -9z"/>
<path d="M7270 6361 c0 -6 5 -13 10 -16 6 -3 10 1 10 9 0 9 -4 16 -10 16 -5 0 -10 -4 -10 -9z"/>
<path d="M7290 6321 c0 -6 5 -13 10 -16 6 -3 10 1 10 9 0 9 -4 16 -10 16 -5 0 -10 -4 -10 -9z"/>
<path d="M7310 6275 c0 -8 5 -15 10 -15 6 0 10 7 10 15 0 8 -4 15 -10 15 -5 0 -10 -7 -10 -15z"/>
<path d="M7330 6235 c0 -8 5 -15 10 -15 6 0 10 7 10 15 0 8 -4 15 -10 15 -5 0 -10 -7 -10 -15z"/>
<path d="M7350 6186 c0 -9 5 -16 10 -16 6 0 10 4 10 9 0 6 -4 13 -10 16 -5 3 -10 -1 -10 -9z"/>
<path d="M7370 6136 c0 -9 5 -16 10 -16 6 0 10 4 10 9 0 6 -4 13 -10 16 -5 3 -10 -1 -10 -9z"/>
<path d="M5870 5774 c0 -14 4 -23 10 -19 6 3 10 -3 10 -14 0 -12 5 -21 10 -21 6 0 10 -11 10 -25 0 -14 5 -25 10 -25 6 0 10 -11 10 -25 0 -14 5 -25 10 -25 6 0 10 -13 10 -30 0 -16 5 -30 10 -30 12 0 13 34 1 58 -5 9 -13 28 -19 42 -20 51 -64 140 -68 140 -2 0 -4 -12 -4 -26z"/>
<path d="M5970 5526 c0 -14 5 -26 10 -26 6 0 10 9 10 19 0 11 -4 23 -10 26 -6 4 -10 -5 -10 -19z"/>
<path d="M5990 5448 c0 -13 5 -30 10 -38 7 -11 10 -7 10 17 0 17 -4 35 -10 38 -6 3 -10 -4 -10 -17z"/>
<path d="M6010 5323 c0 -21 5 -45 10 -53 7 -11 10 0 10 38 0 28 -4 52 -10 52 -5 0 -10 -17 -10 -37z"/>
<path d="M6022 4930 c0 -14 2 -19 5 -12 2 6 2 18 0 25 -3 6 -5 1 -5 -13z"/>
<path d="M4170 3838 c0 -5 129 -8 288 -7 158 0 283 2 277 4 -20 8 -565 10 -565 3z"/>
</g>
</g>
</svg>
